<svg width="105" height="239" viewBox="0 0 105 239" fill="none" xmlns="http://www.w3.org/2000/svg">
<g filter="url(#filter0_d_1_7)">
<path d="M7.71414 177C8.79262 167 98.9865 160.5 99.1973 167C98.8203 154.24 98.1946 140.563 97.3543 127C78.2002 120.05 14.8885 131.701 12.463 136.587C12.4452 136.725 12.4274 136.862 12.4097 137C10.6242 150.846 9.00983 164.545 7.71414 177Z" fill="#FF0505"/>
<path d="M17.5475 100C23.6139 92 88.8235 80.5 94.0521 86C92.548 71.3496 90.7855 58.4204 88.8235 49C79 45 25.2413 54.5 23.6139 63C21.6594 73.6332 19.5832 86.368 17.5475 100Z" fill="#FF0505"/>
<path d="M6.00001 230C3.30905 230 4.57817 207.145 7.71414 177M32 33C30.2079 31.7199 27.1049 44.0077 23.6139 63M32 33C33.2254 33.8752 35.1248 34.444 37.5 34.7869M32 33V25C32 25 37.3238 24.8916 44.5 24.7835M82 33C84.451 33 86.7488 39.038 88.8235 49M82 33C82 33 84.3228 25.9709 82 25C81.7302 24.8872 80.8482 24.8006 79.5 24.7357M82 33C81.212 33 80.3765 33.0158 79.5 33.0448M96 230C99.3967 230 100.229 201.94 99.1973 167M7.71414 177C8.79262 167 98.9865 160.5 99.1973 167M7.71414 177C9.00983 164.545 10.6242 150.846 12.4097 137M99.1973 167C98.8203 154.24 98.1946 140.563 97.3543 127M12.4097 137C12.4274 136.862 12.4452 136.725 12.463 136.587M12.4097 137C12.373 136.869 12.3916 136.731 12.463 136.587M97.3543 127C99.1973 119 95.3617 98.7553 94.0521 86M97.3543 127C78.2002 120.05 14.8885 131.701 12.463 136.587M17.5475 100C23.6139 92 88.8235 80.5 94.0521 86M17.5475 100C19.5832 86.368 21.6594 73.6332 23.6139 63M17.5475 100C15.7876 111.785 14.0579 124.24 12.463 136.587M94.0521 86C92.548 71.3496 90.7855 58.4204 88.8235 49M23.6139 63C25.2413 54.5 79 45 88.8235 49M37.5 34.7869C38.1682 32.2737 38.4348 29.8359 38.4678 27.5M37.5 34.7869C39.5278 35.0796 41.9023 35.2076 44.5 35.221M37.5 34.7869V25M77 33.1553C70 25 82 7 70 3.99996C58 0.999927 50 -0.500032 41 3.99996C39.1508 4.92458 38.0751 6.162 37.5 7.66937M77 33.1553C77.8641 33.1088 78.6992 33.0713 79.5 33.0448M77 33.1553C76.0341 33.2072 75.0317 33.2703 74 33.3417M37.5 7.66937C45 2.36458 58 1.50488 65.5 7.66937C73 13.8339 74 22 67.5 27.5C61 33 45 33 38.4678 27.5M37.5 7.66937C35.7655 12.2158 38.5848 19.218 38.4678 27.5M79.5 33.0448V24.7357M79.5 24.7357C77.6132 24.6448 74.8133 24.5963 71.5 24.5777M74 33.3417V25L71.5 24.5777M74 33.3417C71.9324 33.4849 69.7469 33.6615 67.5 33.8487M71.5 24.5777C70.2342 24.5705 68.8934 24.5678 67.5 24.5687M67.5 33.8487V24.5687M67.5 33.8487C65.5344 34.0124 63.5217 34.1843 61.5 34.3488M67.5 24.5687C65.5805 24.5699 63.561 24.5781 61.5 24.5914M61.5 34.3488V24.5914M61.5 34.3488C59.5686 34.5059 57.6289 34.6564 55.7139 34.7869M61.5 24.5914C59.1916 24.6063 56.8309 24.6276 54.5 24.6528M55.7139 34.7869V25L54.5 24.6528M55.7139 34.7869C53.4217 34.9431 51.1648 35.0705 49 35.1463M54.5 24.6528C52.6336 24.673 50.7863 24.6957 49 24.7195M49 35.1463V24.7195M49 35.1463C47.4455 35.2007 45.9385 35.2284 44.5 35.221M49 24.7195C47.4444 24.7402 45.9352 24.7618 44.5 24.7835M44.5 35.221V24.7835" stroke="#FAEBD7"/>
</g>
<defs>
<filter id="filter0_d_1_7" x="0.0328979" y="0.659981" width="104.079" height="237.84" filterUnits="userSpaceOnUse" color-interpolation-filters="sRGB">
<feFlood flood-opacity="0" result="BackgroundImageFix"/>
<feColorMatrix in="SourceAlpha" type="matrix" values="0 0 0 0 0 0 0 0 0 0 0 0 0 0 0 0 0 0 127 0" result="hardAlpha"/>
<feOffset dy="4"/>
<feGaussianBlur stdDeviation="2"/>
<feComposite in2="hardAlpha" operator="out"/>
<feColorMatrix type="matrix" values="0 0 0 0 0 0 0 0 0 0 0 0 0 0 0 0 0 0 0.25 0"/>
<feBlend mode="normal" in2="BackgroundImageFix" result="effect1_dropShadow_1_7"/>
<feBlend mode="normal" in="SourceGraphic" in2="effect1_dropShadow_1_7" result="shape"/>
</filter>
</defs>
</svg>

