<svg width="356.69" height="700" viewBox="0 0 241 486" fill="none" xmlns="http://www.w3.org/2000/svg">
<g filter="url(#filter0_d_27_499)">
<path d="M93.1812 177.84C94.2597 167.84 184.454 161.34 184.664 167.84C184.287 155.08 183.662 141.403 182.821 127.84C163.667 120.89 100.356 132.541 97.9301 137.427C97.9123 137.565 97.8945 137.702 97.8768 137.84C96.0913 151.686 94.4769 165.385 93.1812 177.84Z" fill="#FF0505"/>
<path d="M103.015 100.84C109.081 92.8401 174.291 81.3401 179.519 86.8401C178.015 72.1898 176.253 59.2605 174.291 49.8401C164.467 45.8401 110.708 55.3401 109.081 63.8401C107.126 74.4734 105.05 87.2082 103.015 100.84Z" fill="#FF0505"/>
<path d="M91.4671 230.84C88.7762 230.84 90.0453 207.985 93.1812 177.84M117.467 33.8401C115.675 32.56 112.572 44.8478 109.081 63.8401M117.467 33.8401C118.692 34.7153 120.592 35.2842 122.967 35.627M117.467 33.8401V25.8401C117.467 25.8401 122.791 25.7317 129.967 25.6236M167.467 33.8401C169.918 33.8401 172.216 39.8782 174.291 49.8401M167.467 33.8401C167.467 33.8401 169.79 26.811 167.467 25.8401C167.197 25.7273 166.315 25.6408 164.967 25.5758M167.467 33.8401C166.679 33.8401 165.844 33.8559 164.967 33.8849M181.467 230.84C184.864 230.84 185.697 202.78 184.664 167.84M93.1812 177.84C94.2597 167.84 184.454 161.34 184.664 167.84M93.1812 177.84C94.4769 165.385 96.0913 151.686 97.8768 137.84M184.664 167.84C184.287 155.08 183.662 141.403 182.821 127.84M97.8768 137.84C97.8945 137.702 97.9123 137.565 97.9301 137.427M97.8768 137.84C97.8401 137.709 97.8587 137.571 97.9301 137.427M182.821 127.84C184.664 119.84 180.829 99.5954 179.519 86.8401M182.821 127.84C163.667 120.89 100.356 132.541 97.9301 137.427M103.015 100.84C109.081 92.8401 174.291 81.3401 179.519 86.8401M103.015 100.84C105.05 87.2082 107.126 74.4734 109.081 63.8401M103.015 100.84C101.255 112.625 99.525 125.08 97.9301 137.427M179.519 86.8401C178.015 72.1898 176.253 59.2605 174.291 49.8401M109.081 63.8401C110.708 55.3401 164.467 45.8401 174.291 49.8401M122.967 35.627C123.635 33.1138 123.902 30.6761 123.935 28.3401M122.967 35.627C124.995 35.9198 127.369 36.0478 129.967 36.0611M122.967 35.627V25.8401M162.467 33.9954C155.467 25.8401 167.467 7.84013 155.467 4.8401C143.467 1.84006 135.467 0.340101 126.467 4.8401C124.618 5.76472 123.542 7.00214 122.967 8.5095M162.467 33.9954C163.331 33.9489 164.166 33.9114 164.967 33.8849M162.467 33.9954C161.501 34.0473 160.499 34.1104 159.467 34.1819M122.967 8.5095C130.467 3.20471 143.467 2.34501 150.967 8.5095C158.467 14.674 159.467 22.8402 152.967 28.3401C146.467 33.8401 130.467 33.8401 123.935 28.3401M122.967 8.5095C121.233 13.0559 124.052 20.0581 123.935 28.3401M164.967 33.8849V25.5758M164.967 25.5758C163.08 25.4849 160.28 25.4364 156.967 25.4178M159.467 34.1819V25.8401L156.967 25.4178M159.467 34.1819C157.4 34.325 155.214 34.5017 152.967 34.6888M156.967 25.4178C155.701 25.4107 154.361 25.4079 152.967 25.4088M152.967 34.6888V25.4088M152.967 34.6888C151.001 34.8526 148.989 35.0244 146.967 35.1889M152.967 25.4088C151.048 25.41 149.028 25.4182 146.967 25.4315M146.967 35.1889V25.4315M146.967 35.1889C145.036 35.3461 143.096 35.4966 141.181 35.627M146.967 25.4315C144.659 25.4464 142.298 25.4678 139.967 25.493M141.181 35.627V25.8401L139.967 25.493M141.181 35.627C138.889 35.7832 136.632 35.9106 134.467 35.9864M139.967 25.493C138.101 25.5131 136.253 25.5358 134.467 25.5596M134.467 35.9864V25.5596M134.467 35.9864C132.913 36.0408 131.406 36.0686 129.967 36.0611M134.467 25.5596C132.912 25.5803 131.402 25.602 129.967 25.6236M129.967 36.0611V25.6236" stroke="#FAEBD7" stroke-width="3"/>
</g>
<line x1="186.189" y1="171.512" x2="241.189" y2="178.512" stroke="#FAEBD7" stroke-width="3"/>
<path d="M186 204C206.677 201.62 218.478 200.781 241.5 204" stroke="#FAEBD7" stroke-width="4" stroke-linecap="round"/>
<g filter="url(#filter1_d_27_499)">
<path d="M221 222.5C212.404 221.474 208.344 221.561 202 222.5C202.207 218.204 202.219 215.796 202 211.5C209.42 211.737 213.58 211.713 221 211.5C220.551 216.374 220.574 218.75 221 222.5Z" fill="#FAEBD7"/>
<path d="M221 222.5C212.404 221.474 208.344 221.561 202 222.5C202.207 218.204 202.219 215.796 202 211.5C209.42 211.737 213.58 211.713 221 211.5C220.551 216.374 220.574 218.75 221 222.5Z" stroke="#FAEBD7" stroke-width="2" stroke-linecap="round" stroke-linejoin="round"/>
</g>
<path d="M55.7782 409.113C53.113 406.115 55.5208 401.24 50.6603 401.24C48.4327 401.24 45.8187 400.883 43.6178 401.283C40.9833 401.762 38.4469 408.255 37.8437 410.338C34.4364 422.109 32.2641 434.498 25.5083 444.939C24.1866 446.981 18.5964 457.055 21.9214 458.717" stroke="#FAEBD7" stroke-width="3" stroke-linecap="round"/>
<path d="M47.1172 403.602C47.1172 398.429 47.553 392.411 51.054 388.292C53.0005 386.002 54.0966 382.855 55.822 380.374C57.4593 378.021 59.7068 376.216 61.1148 373.682C65.4308 365.913 70.8345 365.808 79.5742 365.808C84.8614 365.808 88.9741 367.271 93.5719 369.57C98.917 372.243 100.627 377.158 103.633 382.168C105.323 384.985 107.557 387.556 108.882 390.566C110.002 393.113 112.88 396.244 113.256 398.878C113.922 403.543 113.256 408.731 113.256 413.444C113.256 420.909 113.256 428.375 113.256 435.84C113.256 439.592 115.058 442.502 115.574 446.12C115.967 448.868 116.138 453.661 117.63 456.005C120.978 461.265 122.944 465.504 124.323 471.709C124.868 474.161 126.792 476.827 129.397 476.827C131.974 476.827 133.817 481.031 134.515 483.126" stroke="#FAEBD7" stroke-width="3" stroke-linecap="round"/>
<path d="M44.9272 238.783C36.2416 238.783 40.272 249.024 37.5582 253.909C34.6117 259.213 38.663 266.967 39.5405 271.793C40.2281 275.575 41.8245 278.178 41.8245 282.222C41.8245 285.386 41.0488 288.626 41.0488 291.918C41.0488 295.657 42.8006 297.623 44.3239 300.839C45.9953 304.367 47.0283 306.835 48.0731 310.492C48.737 312.816 50.6754 315.401 51.9084 317.559C53.7103 320.712 58.1299 322.535 59.493 325.488C62.2171 331.391 70.4715 332.456 73.6278 337.469C75.2628 340.065 78.2819 343.965 78.2819 346.992C78.2819 349.878 81.0759 351.891 81.3847 354.361C81.7031 356.909 83.9615 358.394 84.5305 360.955C85.1986 363.961 89.9173 364.655 89.9173 368.324" stroke="#FAEBD7" stroke-width="3" stroke-linecap="round"/>
<path d="M190.5 173C192.174 184.443 193.356 190.77 197 201.5M201.5 173C203.15 184.318 204.81 190.556 209 201.5M212 175.5C215 187.5 214.264 191.767 220.5 201.5M220.5 175.5C222.139 186.611 224.146 192.22 229 201.5M230 177.5C231.492 186.768 232.879 192.011 237 201.5M237 177.5C239.3 188.098 241.455 193.375 247 201.5M185.5 195.5C208.667 194.18 222.418 193.691 249 193.5M185.5 187C204.81 185.15 218.458 185.064 249 187M185.5 180.5C206.119 178.158 220.476 178.412 249 180.5" stroke="#FAEBD7" stroke-width="2" stroke-linecap="round"/>
<path d="M241.296 236.843C233.653 236.843 225.287 238.892 218.101 235.698C210.878 232.488 201.256 236.516 193.616 233.121C190.211 231.607 185.087 232.333 181.374 232.333C177.335 232.333 172.258 231.508 168.989 234.123C167.917 234.981 164.124 234.91 162.689 234.91C160.756 234.91 158.823 234.91 156.89 234.91C152.595 234.91 148.299 234.91 144.004 234.91C141.427 234.91 138.849 234.91 136.272 234.91C134.132 234.91 132.234 233.725 130.473 233.622C126.77 233.404 122.88 232.977 118.875 232.977C110.022 232.977 101.169 232.977 92.3152 232.977C90.3804 232.977 87.1278 232.34 85.3709 233.121C83.6548 233.883 82.2345 234.91 80.2163 234.91C76.7024 234.91 72.4818 235.555 68.6186 235.555C64.7054 235.555 61.0215 234.91 57.0209 234.91C53.5092 234.91 49.3716 237.031 46.0674 238.132" stroke="#FAEBD7" stroke-width="3" stroke-linecap="round"/>
<path d="M2.23724 486.275C2.23724 477.725 6.90566 469.644 12.0356 463.048C14.0987 460.395 13.1062 457.143 17.5909 457.143C20.9036 457.143 22.2087 455.568 25.4646 455.568C29.5874 455.568 32.4699 456.668 35.3067 459.505C37.0756 461.274 43.7081 464.385 43.9677 466.591C44.3801 470.096 48.5326 473.535 50.0917 476.827C51.543 479.891 52.3244 483.457 54.2035 486.275" stroke="#FAEBD7" stroke-width="3" stroke-linecap="round"/>
<path d="M44.7551 467.379C41.7285 467 43.1803 450.063 43.1803 446.994C43.1803 443.406 42.7192 439.518 43.7927 436.059C44.9911 432.198 47.023 427.86 47.1172 423.811C47.3301 414.655 55.9972 407.636 59.5401 399.665C60.4045 397.72 61.5182 396.764 64.0893 397.478C66.1168 398.041 67.9385 400.126 69.5134 401.415C73.345 404.55 77.4521 407.218 81.6301 409.857C86.4906 412.927 91.7738 415.882 94.7529 420.924C97.3186 425.266 99.3432 430 101.052 434.747C103.643 441.945 103.788 452.04 108.138 458.324C112.942 465.263 110.894 477.983 110.894 486.275" stroke="#FAEBD7" stroke-width="3" stroke-linecap="round"/>
<defs>
<filter id="filter0_d_27_499" x="84.5" y="0.500336" width="106.079" height="239.84" filterUnits="userSpaceOnUse" color-interpolation-filters="sRGB">
<feFlood flood-opacity="0" result="BackgroundImageFix"/>
<feColorMatrix in="SourceAlpha" type="matrix" values="0 0 0 0 0 0 0 0 0 0 0 0 0 0 0 0 0 0 127 0" result="hardAlpha"/>
<feOffset dy="4"/>
<feGaussianBlur stdDeviation="2"/>
<feComposite in2="hardAlpha" operator="out"/>
<feColorMatrix type="matrix" values="0 0 0 0 0 0 0 0 0 0 0 0 0 0 0 0 0 0 0.25 0"/>
<feBlend mode="normal" in2="BackgroundImageFix" result="effect1_dropShadow_27_499"/>
<feBlend mode="normal" in="SourceGraphic" in2="effect1_dropShadow_27_499" result="shape"/>
</filter>
<filter id="filter1_d_27_499" x="192" y="201.5" width="41" height="33" filterUnits="userSpaceOnUse" color-interpolation-filters="sRGB">
<feFlood flood-opacity="0" result="BackgroundImageFix"/>
<feColorMatrix in="SourceAlpha" type="matrix" values="0 0 0 0 0 0 0 0 0 0 0 0 0 0 0 0 0 0 127 0" result="hardAlpha"/>
<feOffset dx="1" dy="1"/>
<feGaussianBlur stdDeviation="5"/>
<feComposite in2="hardAlpha" operator="out"/>
<feColorMatrix type="matrix" values="0 0 0 0 0.980392 0 0 0 0 0.921569 0 0 0 0 0.843137 0 0 0 1 0"/>
<feBlend mode="normal" in2="BackgroundImageFix" result="effect1_dropShadow_27_499"/>
<feBlend mode="normal" in="SourceGraphic" in2="effect1_dropShadow_27_499" result="shape"/>
</filter>
</defs>
</svg>

