<svg width="815" height="994" viewBox="0 0 815 994" fill="none" xmlns="http://www.w3.org/2000/svg">
<g filter="url(#filter0_d_27_499)">
<path d="M532.325 509.855C534.061 494.167 679.257 483.97 679.596 494.167C678.989 474.15 677.982 452.693 676.629 431.415C645.795 420.512 543.875 438.79 539.97 446.455L539.884 447.103C537.01 468.824 534.411 490.316 532.325 509.855Z" fill="#EB5858"/>
<path d="M548.155 389.058C557.921 376.508 662.896 358.467 671.313 367.095C668.892 344.112 666.054 323.829 662.896 309.051C647.082 302.776 560.541 317.679 557.921 331.014C554.774 347.695 551.432 367.673 548.155 389.058Z" fill="#EB5858"/>
<path fill-rule="evenodd" clip-rule="evenodd" d="M598.788 270.979L600.258 270.96C602.681 270.928 605.174 270.898 607.696 270.871L607.639 270.393C604.635 270.425 601.661 270.46 598.785 270.498L598.788 270.979Z" fill="#EB5858"/>
<path fill-rule="evenodd" clip-rule="evenodd" d="M632.779 270.263C633.274 270.263 633.766 270.727 634.25 270.728C639.684 262.54 636.896 252.282 626.82 244.212C620.829 239.413 612.656 236.866 604.469 236.999C595.676 236.855 586.716 239.772 580.275 244.212C578.675 248.299 579.482 253.651 580.427 259.921C580.955 263.42 581.526 267.204 581.745 271.214L583.212 270.728L583.216 271.214C585.683 271.173 588.496 271.128 591.544 271.082C592.028 271.075 592.518 271.068 593.014 271.06C594.869 271.033 596.802 271.006 598.788 270.979L600.258 270.96C602.681 270.928 605.174 270.898 607.696 270.871C608.167 270.865 608.639 270.86 609.112 270.855C612.371 270.821 615.666 270.791 618.91 270.769C619.402 270.765 619.892 270.762 620.381 270.759C623.177 270.741 625.925 270.729 628.569 270.725C629.063 270.724 629.553 270.724 630.04 270.723L630.14 270.261C631.035 270.262 631.917 270.725 632.779 270.728V270.263ZM632.779 270.263C638.211 262.075 635.422 251.819 625.347 243.75C619.715 239.239 612.157 237.125 604.469 236.999C596.156 237.135 587.826 239.557 581.743 243.75C580.143 247.837 580.95 253.189 581.896 259.459C582.422 262.95 582.992 266.727 583.212 270.728C585.72 270.687 588.529 270.642 591.541 270.598C593.852 270.564 596.281 270.53 598.785 270.498C601.661 270.46 604.635 270.425 607.639 270.393C611.392 270.354 615.192 270.32 618.908 270.297C622.226 270.276 625.477 270.263 628.567 270.261C629.096 270.261 629.621 270.261 630.14 270.261C631.034 270.261 631.915 270.261 632.779 270.263Z" fill="#EB5858"/>
<path d="M618.908 270.297C622.226 270.276 625.477 270.263 628.567 270.261C629.096 270.261 629.621 270.261 630.14 270.261C631.034 270.261 631.915 270.261 632.779 270.263C638.211 262.075 635.422 251.819 625.347 243.75C619.715 239.239 612.157 237.125 604.469 236.999C596.156 237.135 587.826 239.557 581.743 243.75C580.143 247.837 580.95 253.189 581.896 259.459C582.422 262.95 582.992 266.727 583.212 270.728C585.72 270.687 588.529 270.642 591.541 270.598C593.852 270.564 596.281 270.53 598.785 270.498C601.661 270.46 604.635 270.425 607.639 270.393C611.392 270.354 615.192 270.32 618.908 270.297Z" fill="#F0C284"/>
<path d="M598.788 281.425C602.327 281.837 606.011 281.903 609.596 281.624V271.4L607.696 270.871C605.174 270.898 602.681 270.928 600.258 270.96L598.788 270.979V281.425Z" fill="#F0C284"/>
<path fill-rule="evenodd" clip-rule="evenodd" d="M618.908 270.297L618.91 270.769C615.666 270.791 612.371 270.821 609.112 270.855C608.639 270.86 608.167 270.865 607.696 270.871L607.639 270.393C611.392 270.354 615.192 270.32 618.908 270.297Z" fill="#EB5858"/>
<path d="M609.596 271.4V281.624C612.843 281.372 616.008 280.836 618.91 280.016V270.769C615.666 270.791 612.371 270.821 609.112 270.855C608.639 270.86 608.167 270.865 607.696 270.871L609.596 271.4Z" fill="#F0C284"/>
<path fill-rule="evenodd" clip-rule="evenodd" d="M628.567 270.261L628.569 270.725C625.925 270.729 623.177 270.741 620.381 270.759C619.892 270.762 619.402 270.765 618.91 270.769L618.908 270.297C622.226 270.276 625.477 270.263 628.567 270.261Z" fill="#EB5858"/>
<path d="M618.91 280.016C622.722 278.94 626.079 277.376 628.569 275.322V270.725C625.925 270.729 623.177 270.741 620.381 270.759C619.892 270.762 619.402 270.765 618.91 270.769V280.016Z" fill="#F0C284"/>
<path fill-rule="evenodd" clip-rule="evenodd" d="M591.541 270.598C593.852 270.564 596.281 270.53 598.785 270.498L598.788 270.979C596.802 271.006 594.869 271.033 593.014 271.06L591.544 271.082L591.541 270.598Z" fill="#EB5858"/>
<path d="M591.544 280.023C593.827 280.665 596.271 281.132 598.788 281.425V270.979C596.802 271.006 594.869 271.033 593.014 271.06L591.544 271.082V280.023Z" fill="#F0C284"/>
<path fill-rule="evenodd" clip-rule="evenodd" d="M583.212 270.728C585.72 270.687 588.529 270.642 591.541 270.598L591.544 271.082C588.496 271.128 585.683 271.173 583.216 271.214L583.212 270.728Z" fill="#EB5858"/>
<path d="M581.745 271.214C581.819 272.559 581.853 273.929 581.833 275.322C584.341 277.38 587.716 278.947 591.544 280.023V271.082C588.496 271.128 585.683 271.173 583.216 271.214L583.212 270.728L581.745 271.214Z" fill="#F0C284"/>
<path d="M529.566 593C525.234 593 527.277 557.145 532.325 509.855M571.421 283.95C568.536 281.942 563.541 301.219 557.921 331.014M571.421 283.95C573.394 285.323 576.451 286.216 580.275 286.753M571.421 283.95V271.4C571.421 271.4 575.467 271.32 581.745 271.214M651.912 283.95C655.857 283.95 659.556 293.423 662.896 309.051M651.912 283.95C651.912 283.95 655.651 272.923 651.912 271.4C651.477 271.223 650.057 271.087 647.887 270.985M651.912 283.95C650.643 283.95 649.298 283.975 647.887 284.02M674.449 593C679.917 593 681.258 548.98 679.596 494.167M532.325 509.855C534.061 494.167 679.257 483.97 679.596 494.167M532.325 509.855C534.411 490.316 537.01 468.824 539.884 447.103M679.596 494.167C678.989 474.15 677.982 452.693 676.629 431.415M539.884 447.103C539.913 446.887 539.941 446.671 539.97 446.455M539.884 447.103C539.825 446.897 539.855 446.681 539.97 446.455M539.884 447.103L539.97 446.455M676.629 431.415C679.596 418.865 673.421 387.106 671.313 367.095M676.629 431.415C645.795 420.512 543.875 438.79 539.97 446.455M548.155 389.058C557.921 376.508 662.896 358.467 671.313 367.095M548.155 389.058C551.432 367.673 554.774 347.695 557.921 331.014M548.155 389.058C545.322 407.546 542.538 427.085 539.97 446.455M671.313 367.095C668.892 344.112 666.054 323.829 662.896 309.051M557.921 331.014C560.541 317.679 647.082 302.776 662.896 309.051M580.275 286.753C581.351 282.811 581.78 278.987 581.833 275.322M580.275 286.753C583.539 287.213 587.362 287.413 591.544 287.434M580.275 286.753V271.4M643.862 284.194C632.594 271.4 651.911 243.162 632.594 238.455C613.276 233.749 600.398 231.396 585.909 238.455C582.932 239.906 581.201 241.847 580.275 244.212M643.862 284.194C645.254 284.121 646.598 284.062 647.887 284.02M643.862 284.194C642.307 284.275 640.694 284.374 639.033 284.486M580.275 244.212C586.716 239.772 595.676 236.855 604.469 236.999M580.275 244.212C578.675 248.299 579.482 253.651 580.427 259.921C580.955 263.42 581.526 267.204 581.745 271.214M628.569 275.322C630.301 273.894 631.702 272.352 632.779 270.728M628.569 275.322C626.079 277.376 622.722 278.94 618.91 280.016M628.569 275.322V270.725M581.833 275.322C581.853 273.929 581.819 272.559 581.745 271.214M581.833 275.322C584.341 277.38 587.716 278.947 591.544 280.023M647.887 284.02V270.985M647.887 270.985C644.85 270.843 640.342 270.767 635.008 270.737M639.033 284.486V271.4L635.008 270.737M639.033 284.486C635.705 284.711 632.186 284.988 628.569 285.282M635.008 270.737C634.28 270.733 633.537 270.73 632.779 270.728M628.569 285.282C625.405 285.538 622.165 285.808 618.91 286.066M628.569 285.282V270.725M628.567 270.261C625.477 270.263 622.226 270.276 618.908 270.297M628.567 270.261C629.096 270.261 629.621 270.261 630.14 270.261M628.567 270.261L628.569 270.725M618.91 286.066C615.801 286.313 612.679 286.549 609.596 286.753M618.91 286.066V280.016M618.908 270.297C615.192 270.32 611.392 270.354 607.639 270.393M618.908 270.297L618.91 270.769M609.596 286.753C605.906 286.998 602.273 287.198 598.788 287.317M609.596 286.753V281.624M607.639 270.393C604.635 270.425 601.661 270.46 598.785 270.498M607.639 270.393L607.696 270.871M598.788 287.317C596.285 287.403 593.859 287.446 591.544 287.434M598.788 287.317V281.425M598.785 270.498C596.281 270.53 593.852 270.564 591.541 270.598M598.785 270.498L598.788 270.979M591.544 287.434V280.023M591.541 270.598C588.529 270.642 585.72 270.687 583.212 270.728M591.541 270.598L591.544 271.082M581.745 271.214L583.212 270.728M581.745 271.214C582.222 271.206 582.71 270.736 583.212 270.728M632.779 270.728C631.917 270.725 631.035 270.262 630.14 270.261M632.779 270.728V270.263M598.788 281.425C602.327 281.837 606.011 281.903 609.596 281.624M598.788 281.425C596.271 281.132 593.827 280.665 591.544 280.023M598.788 281.425V270.979M609.596 281.624V271.4L607.696 270.871M609.596 281.624C612.843 281.372 616.008 280.836 618.91 280.016M618.91 280.016V270.769M591.544 280.023V271.082M630.04 270.723L630.14 270.261M630.04 270.723C630.074 270.723 630.106 270.261 630.14 270.261M630.04 270.723C629.553 270.724 629.063 270.724 628.569 270.725M600.258 270.96L598.788 270.979M600.258 270.96C602.681 270.928 605.174 270.898 607.696 270.871M600.258 270.96C599.765 270.966 599.275 270.973 598.788 270.979M593.014 271.06C594.869 271.033 596.802 271.006 598.788 270.979M593.014 271.06L591.544 271.082M593.014 271.06C592.518 271.068 592.028 271.075 591.544 271.082M583.216 271.214L583.212 270.728M583.216 271.214C583.215 271.206 583.213 270.736 583.212 270.728M583.216 271.214C585.683 271.173 588.496 271.128 591.544 271.082M607.696 270.871C608.167 270.865 608.639 270.86 609.112 270.855C612.371 270.821 615.666 270.791 618.91 270.769M632.779 270.263C633.274 270.263 633.766 270.727 634.25 270.728C639.684 262.54 636.896 252.282 626.82 244.212C620.829 239.413 612.656 236.866 604.469 236.999M632.779 270.263C638.211 262.075 635.422 251.819 625.347 243.75C619.715 239.239 612.157 237.125 604.469 236.999M632.779 270.263C631.915 270.261 631.034 270.261 630.14 270.261M604.469 236.999C596.156 237.135 587.826 239.557 581.743 243.75C580.143 247.837 580.95 253.189 581.896 259.459C582.422 262.95 582.992 266.727 583.212 270.728M618.91 270.769C619.402 270.765 619.892 270.762 620.381 270.759C623.177 270.741 625.925 270.729 628.569 270.725" stroke="#FAEBD7" stroke-width="5"/>
</g>
<line y1="-2.5" x2="114.132" y2="-2.5" transform="matrix(0.995371 0.0961106 -0.165446 0.986219 681.872 499.965)" stroke="#FAEBD7" stroke-width="5"/>
<path d="M681.872 548.543C724.581 544.814 748.956 543.5 796.509 548.543" stroke="#FAEBD7" stroke-width="5" stroke-linecap="round"/>
<g filter="url(#filter1_d_27_499)">
<path d="M754.165 577.534C736.41 575.927 728.023 576.062 714.92 577.534C715.348 570.802 715.373 567.028 714.92 560.296C730.246 560.668 738.839 560.63 754.165 560.296C753.238 567.933 753.286 571.658 754.165 577.534Z" fill="#FAEBD7"/>
<path d="M754.165 577.534C736.41 575.927 728.023 576.062 714.92 577.534C715.348 570.802 715.373 567.028 714.92 560.296C730.246 560.668 738.839 560.63 754.165 560.296C753.238 567.933 753.286 571.658 754.165 577.534Z" stroke="#FAEBD7" stroke-width="5" stroke-linecap="round" stroke-linejoin="round"/>
</g>
<path d="M412.895 869.966C407.39 865.267 412.364 857.627 402.324 857.627C397.723 857.627 392.324 857.069 387.778 857.696C382.336 858.446 377.097 868.62 375.851 871.885C368.813 890.33 364.327 909.744 350.372 926.105C347.642 929.306 336.095 945.092 342.963 947.698" stroke="#FAEBD7" stroke-width="5" stroke-linecap="round"/>
<path d="M395.006 861.329C395.006 853.223 395.906 843.792 403.137 837.337C407.158 833.749 409.422 828.817 412.986 824.93C416.368 821.242 421.01 818.414 423.918 814.443C432.833 802.269 443.995 802.104 462.047 802.104C472.968 802.104 481.462 804.397 490.959 807.999C502 812.187 505.532 819.89 511.74 827.741C515.232 832.156 519.846 836.184 522.582 840.902C524.896 844.892 530.84 849.799 531.617 853.926C532.994 861.236 531.617 869.366 531.617 876.752C531.617 888.45 531.617 900.149 531.617 911.848C531.617 917.727 535.338 922.287 536.406 927.956C537.217 932.263 537.571 939.774 540.653 943.448C547.566 951.69 551.628 958.333 554.476 968.056C555.602 971.898 559.577 976.076 564.957 976.076C570.28 976.076 574.086 982.664 575.528 985.947" stroke="#FAEBD7" stroke-width="5" stroke-linecap="round"/>
<path d="M390.483 603.051C372.542 603.051 380.867 619.099 375.262 626.754C369.176 635.065 377.544 647.216 379.356 654.779C380.777 660.706 384.074 664.784 384.074 671.121C384.074 676.079 382.472 681.157 382.472 686.316C382.472 692.174 386.09 695.255 389.237 700.294C392.689 705.823 394.823 709.691 396.981 715.421C398.352 719.062 402.356 723.115 404.903 726.496C408.624 731.437 417.753 734.294 420.569 738.922C426.195 748.171 443.245 749.839 449.764 757.695C453.142 761.764 459.378 767.876 459.378 772.619C459.378 777.141 465.149 780.296 465.787 784.167C466.444 788.158 471.109 790.486 472.284 794.499C473.664 799.21 483.411 800.297 483.411 806.047" stroke="#FAEBD7" stroke-width="5" stroke-linecap="round"/>
<path d="M691.167 499.965C694.625 517.896 697.066 527.812 704.593 544.626M713.887 499.965C717.296 517.7 720.724 527.477 729.379 544.626M735.575 503.883C741.772 522.687 740.252 529.374 753.132 544.626M753.132 503.883C756.518 521.294 760.662 530.084 770.689 544.626M772.755 507.017C775.838 521.54 778.702 529.756 787.214 544.626M787.214 507.017C791.965 523.625 796.415 531.894 807.869 544.626M680.839 535.224C728.691 533.155 757.094 532.389 812 532.089M680.839 521.904C720.725 519.005 748.914 518.87 812 521.904M680.839 511.718C723.427 508.048 753.082 508.446 812 511.718" stroke="#FAEBD7" stroke-width="5" stroke-linecap="round"/>
<path d="M796.087 600.01C780.3 600.01 763.02 603.22 748.176 598.215C733.258 593.185 713.384 599.497 697.604 594.177C690.569 591.805 679.985 592.943 672.317 592.943C663.974 592.943 653.487 591.649 646.735 595.747C644.52 597.092 636.687 596.981 633.722 596.981C629.73 596.981 625.737 596.981 621.745 596.981C612.872 596.981 604 596.981 595.128 596.981C589.804 596.981 584.481 596.981 579.157 596.981C574.737 596.981 570.817 595.124 567.18 594.962C559.53 594.621 551.495 593.952 543.224 593.952C524.937 593.952 506.65 593.952 488.363 593.952C484.367 593.952 477.649 592.953 474.02 594.177C470.475 595.372 467.541 596.981 463.373 596.981C456.115 596.981 447.397 597.991 439.417 597.991C431.335 597.991 423.725 596.981 415.462 596.981C408.209 596.981 399.662 600.304 392.837 602.03" stroke="#FAEBD7" stroke-width="5" stroke-linecap="round"/>
<path d="M302.305 990.882C302.305 977.483 311.948 964.819 322.544 954.484C326.805 950.327 324.755 945.23 334.019 945.23C340.861 945.23 343.557 942.762 350.282 942.762C358.798 942.762 364.752 944.486 370.611 948.931C374.265 951.703 387.964 956.578 388.501 960.036C389.352 965.529 397.929 970.918 401.15 976.076C404.147 980.877 405.761 986.465 409.643 990.882" stroke="#FAEBD7" stroke-width="5" stroke-linecap="round"/>
<path d="M390.127 961.27C383.875 960.677 386.874 934.135 386.874 929.327C386.874 923.704 385.922 917.611 388.139 912.19C390.614 906.14 394.811 899.343 395.006 892.997C395.446 878.65 413.348 867.651 420.666 855.16C422.451 852.112 424.751 850.613 430.062 851.732C434.25 852.615 438.013 855.882 441.266 857.901C449.18 862.814 457.664 866.996 466.293 871.131C476.333 875.941 487.245 880.573 493.399 888.473C498.698 895.277 502.88 902.696 506.409 910.134C511.762 921.414 512.061 937.234 521.046 947.081C530.97 957.955 526.738 977.888 526.738 990.882" stroke="#FAEBD7" stroke-width="5" stroke-linecap="round"/>
<g filter="url(#filter2_df_27_499)">
<path d="M619.301 270.298C622.618 270.277 625.869 270.264 628.959 270.262C629.489 270.262 630.013 270.262 630.532 270.262C631.427 270.261 632.307 270.262 633.172 270.263C638.603 262.076 635.814 251.82 625.74 243.751C620.108 239.24 612.549 237.126 604.861 237C596.548 237.135 588.218 239.558 582.136 243.751C580.536 247.838 581.343 253.19 582.288 259.459C582.815 262.951 583.384 266.728 583.605 270.729C586.112 270.687 588.922 270.643 591.934 270.599C594.244 270.565 596.674 270.531 599.178 270.499C602.054 270.461 605.027 270.426 608.032 270.394C611.784 270.355 615.584 270.321 619.301 270.298Z" fill="#F0C284"/>
<path d="M619.301 270.298C622.618 270.277 625.869 270.264 628.959 270.262C629.489 270.262 630.013 270.262 630.532 270.262C631.427 270.261 632.307 270.262 633.172 270.263C638.603 262.076 635.814 251.82 625.74 243.751C620.108 239.24 612.549 237.126 604.861 237C596.548 237.135 588.218 239.558 582.136 243.751C580.536 247.838 581.343 253.19 582.288 259.459C582.815 262.951 583.384 266.728 583.605 270.729C586.112 270.687 588.922 270.643 591.934 270.599C594.244 270.565 596.674 270.531 599.178 270.499C602.054 270.461 605.027 270.426 608.032 270.394C611.784 270.355 615.584 270.321 619.301 270.298Z" stroke="#FAEBD7" stroke-width="5"/>
</g>
<mask id="mask0_27_499" style="mask-type:alpha" maskUnits="userSpaceOnUse" x="0" y="0" width="576" height="500">
<rect width="575.223" height="500" fill="url(#paint0_linear_27_499)"/>
</mask>
<g mask="url(#mask0_27_499)">
<g filter="url(#filter3_df_27_499)">
<path d="M507.196 227.288L130.05 72V439L507.196 309.177C486.127 274.067 487.313 256.312 507.196 227.288Z" fill="#F0C284"/>
</g>
</g>
<defs>
<filter id="filter0_d_27_499" x="478.704" y="185.501" width="258.059" height="464" filterUnits="userSpaceOnUse" color-interpolation-filters="sRGB">
<feFlood flood-opacity="0" result="BackgroundImageFix"/>
<feColorMatrix in="SourceAlpha" type="matrix" values="0 0 0 0 0 0 0 0 0 0 0 0 0 0 0 0 0 0 127 0" result="hardAlpha"/>
<feOffset dx="4" dy="4"/>
<feGaussianBlur stdDeviation="25"/>
<feComposite in2="hardAlpha" operator="out"/>
<feColorMatrix type="matrix" values="0 0 0 0 0 0 0 0 0 0 0 0 0 0 0 0 0 0 1 0"/>
<feBlend mode="normal" in2="BackgroundImageFix" result="effect1_dropShadow_27_499"/>
<feBlend mode="normal" in="SourceGraphic" in2="effect1_dropShadow_27_499" result="shape"/>
</filter>
<filter id="filter1_d_27_499" x="703.42" y="548.796" width="64.245" height="42.2375" filterUnits="userSpaceOnUse" color-interpolation-filters="sRGB">
<feFlood flood-opacity="0" result="BackgroundImageFix"/>
<feColorMatrix in="SourceAlpha" type="matrix" values="0 0 0 0 0 0 0 0 0 0 0 0 0 0 0 0 0 0 127 0" result="hardAlpha"/>
<feOffset dx="1" dy="1"/>
<feGaussianBlur stdDeviation="5"/>
<feComposite in2="hardAlpha" operator="out"/>
<feColorMatrix type="matrix" values="0 0 0 0 0.980392 0 0 0 0 0.921569 0 0 0 0 0.843137 0 0 0 1 0"/>
<feBlend mode="normal" in2="BackgroundImageFix" result="effect1_dropShadow_27_499"/>
<feBlend mode="normal" in="SourceGraphic" in2="effect1_dropShadow_27_499" result="shape"/>
</filter>
<filter id="filter2_df_27_499" x="478.725" y="134.5" width="259.673" height="238.768" filterUnits="userSpaceOnUse" color-interpolation-filters="sRGB">
<feFlood flood-opacity="0" result="BackgroundImageFix"/>
<feColorMatrix in="SourceAlpha" type="matrix" values="0 0 0 0 0 0 0 0 0 0 0 0 0 0 0 0 0 0 127 0" result="hardAlpha"/>
<feOffset dy="4"/>
<feGaussianBlur stdDeviation="2"/>
<feComposite in2="hardAlpha" operator="out"/>
<feColorMatrix type="matrix" values="0 0 0 0 0 0 0 0 0 0 0 0 0 0 0 0 0 0 0.25 0"/>
<feBlend mode="normal" in2="BackgroundImageFix" result="effect1_dropShadow_27_499"/>
<feBlend mode="normal" in="SourceGraphic" in2="effect1_dropShadow_27_499" result="shape"/>
<feGaussianBlur stdDeviation="50" result="effect2_foregroundBlur_27_499"/>
</filter>
<filter id="filter3_df_27_499" x="30.0503" y="-28" width="577.146" height="567" filterUnits="userSpaceOnUse" color-interpolation-filters="sRGB">
<feFlood flood-opacity="0" result="BackgroundImageFix"/>
<feColorMatrix in="SourceAlpha" type="matrix" values="0 0 0 0 0 0 0 0 0 0 0 0 0 0 0 0 0 0 127 0" result="hardAlpha"/>
<feOffset dy="4"/>
<feGaussianBlur stdDeviation="2"/>
<feComposite in2="hardAlpha" operator="out"/>
<feColorMatrix type="matrix" values="0 0 0 0 0 0 0 0 0 0 0 0 0 0 0 0 0 0 0.25 0"/>
<feBlend mode="normal" in2="BackgroundImageFix" result="effect1_dropShadow_27_499"/>
<feBlend mode="normal" in="SourceGraphic" in2="effect1_dropShadow_27_499" result="shape"/>
<feGaussianBlur stdDeviation="50" result="effect2_foregroundBlur_27_499"/>
</filter>
<linearGradient id="paint0_linear_27_499" x1="319.117" y1="250" x2="-97.5643" y2="250" gradientUnits="userSpaceOnUse">
<stop stop-color="#D9D9D9"/>
<stop offset="0.809881" stop-color="#D9D9D9" stop-opacity="0"/>
</linearGradient>
</defs>
</svg>

