<svg width="98" height="231" viewBox="0 0 98 231" fill="none" xmlns="http://www.w3.org/2000/svg">
<path d="M4.71414 177C5.79262 167 95.9865 160.5 96.1973 167C95.8203 154.24 95.1946 140.563 94.3543 127C75.2002 120.05 11.8885 131.701 9.46297 136.587C9.44519 136.725 9.42742 136.862 9.40966 137C7.62422 150.846 6.00983 164.545 4.71414 177Z" fill="#FAEBD7"/>
<path d="M14.5475 100C20.6139 92 85.8235 80.5 91.0521 86C89.548 71.3496 87.7855 58.4204 85.8235 49C76 45 22.2413 54.5 20.6139 63C18.6594 73.6332 16.5832 86.368 14.5475 100Z" fill="#FAEBD7"/>
<path d="M35.4134 24.8817C36.9229 24.8558 38.6402 24.8274 40.5 24.7987C42.3638 24.7699 44.3707 24.7408 46.4551 24.7134C49.3781 24.675 52.4535 24.64 55.5 24.614C59.5668 24.5793 63.5822 24.5607 67.1153 24.5717C70.491 19.3521 68.7589 12.8137 62.5 7.66937C55 1.50488 42 2.36458 34.5 7.66937C32.9514 11.7284 35.0326 17.7447 35.4134 24.8817Z" fill="#FAEBD7"/>
<path d="M35.4678 27.5C42 33 58 33 64.5 27.5C65.5756 26.5898 66.4459 25.6067 67.1153 24.5717C63.5822 24.5607 59.5668 24.5793 55.5 24.614C52.4535 24.64 49.3781 24.675 46.4551 24.7134C44.3707 24.7408 42.3638 24.7699 40.5 24.7987C38.6402 24.8274 36.9229 24.8558 35.4134 24.8817C35.4592 25.7388 35.4804 26.612 35.4678 27.5Z" fill="#FAEBD7"/>
<path d="M3.00001 230C0.309048 230 1.57817 207.145 4.71414 177M29 33C27.2079 31.7199 24.1049 44.0077 20.6139 63M29 33V25C29 25 30.6279 24.9668 33.2968 24.9189M29 33C30.0107 33.7219 31.4801 34.2354 33.2968 34.5855M79 33C81.451 33 83.7488 39.038 85.8235 49M79 33C79 33 81.3228 25.9709 79 25C78.6981 24.8738 77.63 24.7804 76 24.7134M79 33C78.0634 33 77.0597 33.0223 76 33.0626M93 230C96.3967 230 97.2295 201.94 96.1973 167M4.71414 177C5.79262 167 95.9865 160.5 96.1973 167M4.71414 177C6.00983 164.545 7.62422 150.846 9.40966 137M96.1973 167C95.8203 154.24 95.1946 140.563 94.3543 127M9.40966 137C9.42742 136.862 9.44519 136.725 9.46297 136.587M9.40966 137C9.37296 136.869 9.39162 136.731 9.46297 136.587M94.3543 127C96.1973 119 92.3617 98.7553 91.0521 86M94.3543 127C75.2002 120.05 11.8885 131.701 9.46297 136.587M14.5475 100C20.6139 92 85.8235 80.5 91.0521 86M14.5475 100C16.5832 86.368 18.6594 73.6332 20.6139 63M14.5475 100C12.7876 111.785 11.0579 124.24 9.46297 136.587M91.0521 86C89.548 71.3496 87.7855 58.4204 85.8235 49M20.6139 63C22.2413 54.5 76 45 85.8235 49M34.5 34.7869C35.1682 32.2737 35.4348 29.8359 35.4678 27.5M34.5 34.7869C36.2646 35.0416 38.2917 35.1716 40.5 35.2099M34.5 34.7869C34.084 34.7268 33.6826 34.6599 33.2968 34.5855M74 33.1553C67 25 79 7 67 3.99996C55 0.999927 47 -0.500032 38 3.99996C36.1508 4.92458 35.0751 6.162 34.5 7.66937M74 33.1553C74.6859 33.1184 75.3534 33.0872 76 33.0626M74 33.1553C72.572 33.232 71.0644 33.3332 69.5 33.4497M34.5 7.66937C42 2.36458 55 1.50488 62.5 7.66937C68.7589 12.8137 70.491 19.3521 67.1153 24.5717M34.5 7.66937C32.9514 11.7284 35.0326 17.7447 35.4134 24.8817M35.4678 27.5C42 33 58 33 64.5 27.5C65.5756 26.5898 66.4459 25.6067 67.1153 24.5717M35.4678 27.5C35.4804 26.612 35.4592 25.7388 35.4134 24.8817M35.4134 24.8817C36.9229 24.8558 38.6402 24.8274 40.5 24.7987M35.4134 24.8817C34.6523 24.8948 33.944 24.9073 33.2968 24.9189M67.1153 24.5717C67.9382 24.5742 68.7349 24.5784 69.5 24.5843M67.1153 24.5717C63.5822 24.5607 59.5668 24.5793 55.5 24.614M76 33.0626V24.7134M76 24.7134C74.3427 24.6453 72.1044 24.6045 69.5 24.5843M69.5 33.4497V24.5843M69.5 33.4497C67.106 33.6278 64.5789 33.8417 62 34.0583M62 34.0583V25L55.5 24.614M62 34.0583C59.8535 34.2385 57.6712 34.4206 55.5 34.5855M55.5 24.614V34.5855M55.5 24.614C52.4535 24.64 49.3781 24.675 46.4551 24.7134M55.5 34.5855C52.6101 34.805 49.7399 34.9941 47 35.1079M47 35.1079V25L46.4551 24.7134M47 35.1079C44.722 35.2026 42.5342 35.2451 40.5 35.2099M46.4551 24.7134C44.3707 24.7408 42.3638 24.7699 40.5 24.7987M40.5 35.2099V24.7987M33.2968 34.5855V24.9189" stroke="#FDFAFA" stroke-width="2"/>
</svg>
