<svg width="938" height="160" viewBox="0 0 938 160" fill="none" xmlns="http://www.w3.org/2000/svg">
<path d="M21.3532 114.075C54.4893 74.2491 132.64 159.822 160.15 141.523" stroke="#FAEBD7" stroke-width="5" stroke-linecap="round"/>
<path d="M27.0886 128.154C57.4862 90.3696 129.178 171.554 154.414 154.194" stroke="#FAEBD7" stroke-width="5" stroke-linecap="round"/>
<path d="M13.3237 106.515C66.0893 50.0981 122.87 150.917 164.738 129.12" stroke="#FAEBD7" stroke-width="5" stroke-linecap="round"/>
<path d="M3 79.8737C18.3794 69.6682 33.3801 65.6335 47.736 65.6223M175.062 119.052C167.104 127.253 152.725 117.141 133.767 103.588M162.444 144.126C169.894 133.167 177.255 123.641 184.543 115.396M450.934 111.217C369.636 108.384 301.07 41.616 227.911 79.8737M133.767 103.588C147.358 90.7939 162.444 115.396 184.543 115.396M133.767 103.588C128.049 99.5002 121.914 95.0995 115.414 90.7939M184.543 115.396C186.976 112.643 189.4 110.033 191.817 107.56M115.414 90.7939C146.958 79.8737 162.444 103.588 191.817 107.56M115.414 90.7939C109.663 86.9854 103.627 83.2512 97.3391 79.8737M191.817 107.56C195.531 103.76 199.227 100.285 202.907 97.1124M97.3391 79.8737C141.796 51.1429 158.429 90.7939 202.907 97.1124M97.3391 79.8737C92.7853 77.4277 88.0996 75.1687 83.2954 73.2041M202.907 97.1124C206.641 93.8932 210.359 90.9866 214.062 88.3711M83.2954 73.2041C154.414 31.8149 157.282 79.8737 214.062 88.3711M83.2954 73.2041C78.4412 71.2191 68.3834 68.2612 68.3834 68.2612M214.062 88.3711C218.7 85.096 223.314 82.2775 227.911 79.8737M68.3834 68.2612C133.767 9.875 175.062 73.2041 227.911 79.8737M68.3834 68.2612C68.3834 68.2612 54.7844 65.6168 47.736 65.6223M47.736 65.6223C138.355 -17.2887 191.817 73.204 236.43 73.2041" stroke="#FAEBD7" stroke-width="6" stroke-linecap="round"/>
<path d="M729.1 144.126C661.013 136.625 564.015 -1.58417 436.595 125.528M419.389 144.126C420.73 142.564 422.069 141.032 423.404 139.529M453.228 144.126C540.405 41.74 589.73 132.111 696.408 147.783M503.699 144.126C553.023 109.127 561.053 147.783 586.289 147.783M488.787 144.126C550.729 89.2764 567.362 134.723 613.245 147.783M472.728 144.126C549.582 45.3966 633.319 172.857 675.761 154.574M191.694 144.126C280.593 10.3973 324.755 125.528 436.595 125.528M436.595 125.528C434.311 127.807 432.016 130.171 429.713 132.623M207.18 144.126C272.563 58.4561 340.241 142.929 429.713 132.623M429.713 132.623C427.618 134.852 425.515 137.154 423.404 139.529M221.518 147.783C279.446 70.9932 361.461 161.887 423.404 139.529M236.43 147.783C271.99 105.433 345.402 154.574 387.844 147.783" stroke="#FAEBD7" stroke-width="5" stroke-linecap="round"/>
<path d="M4.43385 62.8099C173.587 -67.2965 259.647 108.141 294.071 58.6889" stroke="#FAEBD7" stroke-width="5" stroke-linecap="round"/>
<path d="M359.741 87.7093C360.314 68.656 419.962 103.903 457.242 105.47M339.667 80.396C359.741 46.4414 429.713 96.0674 466.419 99.2016M476.743 91.8883C426.845 87.7093 367.77 23.3766 324.755 75.6946M309.843 70.9932C374.653 3.08406 434.874 87.4274 491.655 84.0527M503.126 75.6946C466.419 43.3072 355.726 -18.8558 286.902 65.7695" stroke="#FAEBD7" stroke-width="5" stroke-linecap="round"/>
<path d="M732.541 55.8442C756.493 30.9297 793.91 22.4121 820.866 31.2925C847.822 40.1729 920.088 69.4261 935 55.8442M764.659 66.2918C797.924 21.8897 852.41 72.038 935 77.2618M778.998 72.038C791.042 43.3072 865.028 93.9248 921.235 89.7988M797.924 82.4855C803.66 55.8442 852.41 107.037 905.176 100.769M614.392 89.7988C738.276 -3.70685 774.409 103.903 895.999 112.261M636.76 100.769C694.687 16.1435 773.262 123.753 879.367 126.888M647.657 107.037C684.364 40.1729 773.262 126.888 852.41 136.29M661.996 116.963C680.922 61.068 782.439 140.47 813.41 140.47M674.04 123.753C680.373 82.4855 751.468 136.29 778.998 140.47M690.099 131.589C693.54 100.769 738.85 144.126 746.306 140.47" stroke="#FAEBD7" stroke-width="5" stroke-linecap="round"/>
<path d="M411.359 28.1582C519.758 -44.4524 643.069 63.6799 666.01 58.9785C561.053 93.4554 579.406 -26.6915 440.61 37.561M456.095 45.919C532.95 -2.66215 603.495 96.0673 630.451 79.3512M472.154 53.7547C505.936 21.9189 555.318 65.7694 590.303 79.3512M492.228 58.9785C504.649 53.642 519.43 60.1618 545.567 71.5155" stroke="#FAEBD7" stroke-width="5" stroke-linecap="round"/>
<path d="M372.064 84.7572C370.899 84.7572 370.289 84.7138 369.285 84.3072C368.318 83.9159 366.435 83.7526 365.533 84.3916C365.033 84.7461 364.514 84.7298 364.221 85.2634C363.934 85.785 363.35 85.6147 363.171 86.0228C362.932 86.5666 361.5 87.5431 360.948 87.7946" stroke="#FAEBD7" stroke-width="3" stroke-linecap="round" stroke-dasharray="6 12 18 24"/>
<path d="M378.456 85.0104C376.013 85.0104 372.881 83.6951 370.396 84.701C369.972 84.8729 368.914 84.9607 368.451 85.0104C368.027 85.0558 367.225 85.6368 366.66 85.7838C366.383 85.8558 366.277 86.4198 365.95 86.5853C365.642 86.741 365.246 86.7323 364.977 86.9228C364.3 87.4026 363.904 87.8557 363.171 88.3009" stroke="#FAEBD7" stroke-width="3" stroke-linecap="round" stroke-dasharray="6 12 18 24"/>
<path d="M457.382 96.6538C458.315 96.5687 459 96.1475 460.022 96.1475C460.624 96.1475 461.226 96.1475 461.828 96.1475C463.17 96.1475 464.787 96.0515 465.997 95.5007C467.235 94.9369 468.011 94.1509 469.471 93.8554C470.291 93.6893 472.111 91.8697 472.111 91.0852" stroke="#FAEBD7" stroke-width="3" stroke-linecap="round" stroke-dasharray="6 12 18 24"/>
<path d="M465.163 88.554C466.998 88.554 468.602 88.8071 470.443 88.8071C471.6 88.8071 474.43 89.1926 475.384 88.4977C475.919 88.1075 476.399 88.0477 477.113 88.0477C477.972 88.0477 478.429 87.45 479.058 87.0915C480.457 86.2952 481.303 85.3348 482.671 84.5041" stroke="#FAEBD7" stroke-width="3" stroke-linecap="round" stroke-dasharray="6 12 18 24"/>
<path d="M399.577 77.923C399.055 77.8702 398.494 77.1333 398.187 76.784C397.888 76.4433 396.733 75.9479 396.242 75.884C394.809 75.6976 393.252 75.3918 391.795 75.3918C390.975 75.3918 389.225 74.9348 388.599 74.4919C388.072 74.1181 387.357 74.1498 386.855 73.8169C386.245 73.4128 385.469 73.8631 384.848 73.5638C382.625 72.4922 380.298 72.6075 377.622 72.6075C377.282 72.6075 374.658 72.1086 374.565 71.9607C374.106 71.2297 371.566 71.5951 370.674 71.5951C368.209 71.5951 366.339 72.4825 364.005 72.6075C362.853 72.6692 362.024 73.62 360.793 73.62C359.381 73.62 358.827 74.6325 357.335 74.6325C356.852 74.6325 356.44 74.9693 356.1 75.2793C355.543 75.786 354.891 75.4518 354.401 76.0246C353.64 76.9161 351.749 77.3546 351.283 78.373C351.034 78.9171 350.289 78.8968 350.125 79.5683C349.984 80.1443 349.642 80.5921 349.137 80.9604C348.377 81.5136 349.814 83.7447 348.442 83.7447" stroke="#FAEBD7" stroke-width="3" stroke-linecap="round" stroke-dasharray="6 12 18 24"/>
<path d="M365.672 71.8482C364.746 71.8482 363.819 71.8482 362.893 71.8482C361.511 71.8482 361.011 72.0444 359.836 72.5513C358.867 72.9695 358.761 73.562 357.613 73.6201C356.939 73.6542 355.299 73.9766 354.834 74.506C354.178 75.2529 353.052 75.5223 352.209 76.0106C351.41 76.4736 350.636 77.3699 349.831 77.684C348.372 78.2535 347.528 81.7198 345.941 81.7198" stroke="#FAEBD7" stroke-width="3" stroke-linecap="round" stroke-dasharray="6 12 18 24"/>
<path d="M361.226 70.8357C359.929 70.967 358.547 71.5951 357.273 71.5951C355.609 71.5951 353.409 72.8379 352.209 73.8731C350.483 75.3628 348.537 76.8078 347.114 78.5699C346.02 79.9249 345.135 81.1934 343.717 82.226" stroke="#FAEBD7" stroke-width="3" stroke-linecap="round" stroke-dasharray="6 12 18 24"/>
<path d="M349.275 74.8857C346.963 76.914 343.733 78.6541 342.328 81.2136" stroke="#FAEBD7" stroke-width="3" stroke-linecap="round" stroke-dasharray="6 12 18 24"/>
<path d="M385.681 74.6325C383.747 74.6325 381.739 73.6707 379.83 73.3809C378.158 73.1271 376.482 73.6323 374.905 73.0575C373.259 72.4579 371.851 71.5951 369.98 71.5951C367.877 71.5951 366.267 72.6619 364.283 73.1138" stroke="#FAEBD7" stroke-width="3" stroke-linecap="round" stroke-dasharray="6 12 18 24"/>
<path d="M376.233 73.62C374.743 73.62 373.464 73.6956 372.064 73.2403C371.138 72.9391 369.993 72.8606 369.007 72.8606C366.698 72.8606 364.2 72.6075 361.781 72.6075" stroke="#FAEBD7" stroke-width="3" stroke-linecap="round" stroke-dasharray="6 12 18 24"/>
<path d="M429.035 132.343C430.196 131.286 430.766 130.071 430.208 128.603C429.974 127.985 426.565 125.346 426.549 125.397C426.376 125.95 427.064 127.108 427.506 127.422C428.103 127.844 427.923 128.58 427.923 129.193C427.923 130.101 427.936 130.304 427.368 130.951C426.733 131.673 426.812 130.726 426.812 130.318C426.812 128.731 423.65 126.946 421.964 126.508C421.339 126.345 419.164 126.357 418.752 125.889C417.985 125.016 416.361 124.9 415.695 123.99" stroke="#FAEBD7" stroke-width="3" stroke-linecap="round" stroke-dasharray="6 12 18 24"/>
<path d="M639.967 47.5489C639.484 47.5489 638.037 47.756 637.744 47.4224C636.952 46.5209 635.407 47.4741 634.47 46.9864C633.464 46.4628 632.365 46.5364 631.228 46.5364C630.201 46.5364 629.49 46.1231 628.573 46.0302C627.88 45.9601 626.545 45.376 626.071 44.8912C625.41 44.2137 623.932 44.771 623.354 44.0053C622.961 43.4846 621.724 42.9967 621.069 42.6131C620.345 42.1891 620.061 41.8746 619.402 41.4741" stroke="#FAEBD7" stroke-width="3" stroke-linecap="round" stroke-dasharray="6 12 18 24"/>
<path d="M638.577 46.5364C637.428 46.5364 636.222 46.6991 635.242 46.227C634.276 45.7613 633.33 45.5239 632.185 45.5239C630.903 45.5239 629.865 44.83 628.573 44.7646C627.215 44.6959 626.248 43.499 624.821 43.499C623.543 43.499 622.651 43.0247 621.501 42.7256C620.503 42.4658 619.694 41.749 618.691 41.4881C615.976 40.7815 613.184 39.0617 610.787 37.4242" stroke="#FAEBD7" stroke-width="3" stroke-linecap="round" stroke-dasharray="6 12 18 24"/>
<path d="M734.177 51.0926C731.791 51.0926 729.602 51.8519 727.23 51.8519C726.164 51.8519 725.099 51.8519 724.034 51.8519C722.943 51.8519 722.149 52.6113 721.116 52.6113" stroke="#FAEBD7" stroke-width="3" stroke-linecap="round" stroke-dasharray="6 12 18 24"/>
<path d="M646.359 68.3045C644.913 68.3045 643.175 68.5742 641.773 68.2905C641.094 68.153 639.839 67.9587 639.272 67.6718C638.392 67.2266 637.269 67.2921 636.292 67.2921C634.962 67.2921 634.317 66.2796 633.019 66.2796" stroke="#FAEBD7" stroke-width="3" stroke-linecap="round" stroke-dasharray="6 12 18 24"/>
<path d="M640.801 69.8233C637.575 69.7417 635.099 67.7765 631.908 67.2921" stroke="#FAEBD7" stroke-width="3" stroke-linecap="round" stroke-dasharray="6 12 18 24"/>
<path d="M638.021 71.342C636.33 70.0388 634.717 69.1624 633.297 67.5453" stroke="#FAEBD7" stroke-width="3" stroke-linecap="round" stroke-dasharray="6 12 18 24"/>
<path d="M638.577 71.0888C637.034 70.3858 635.798 69.803 635.798 68.0514" stroke="#FAEBD7" stroke-width="3" stroke-linecap="round" stroke-dasharray="6 12 18 24"/>
<path d="M638.022 68.8108C638.022 69.6687 638.79 70.3295 639.689 70.3295" stroke="#FAEBD7" stroke-width="3" stroke-linecap="round" stroke-dasharray="6 12 18 24"/>
<path d="M635.242 73.3669C634.474 72.9966 634.131 72.5075 634.131 71.7216C634.131 71.2975 633.497 70.951 633.235 70.5826C632.92 70.1382 631.757 69.5371 631.213 69.317C630.856 69.1725 630.887 68.9222 630.641 68.6983C630.379 68.4594 629.999 68.6855 629.746 68.5014C629.374 68.2303 628.652 68.1379 628.156 68.0374C627.481 67.9009 627.414 67.1232 626.627 67.0389C626.624 67.0386 625.582 66.2286 625.516 66.153C625.123 65.7065 624.719 65.7734 624.126 65.7734" stroke="#FAEBD7" stroke-width="3" stroke-linecap="round" stroke-dasharray="6 12 18 24"/>
<path d="M618.846 79.4417C622.955 79.4417 627.006 79.173 630.456 76.9106C631.412 76.2838 633.389 71.004 631.908 70.3295" stroke="#FAEBD7" stroke-width="3" stroke-linecap="round" stroke-dasharray="6 12 18 24"/>
<path d="M632.463 73.6201C631.982 73.6458 630.513 73.8322 630.24 74.2669C629.917 74.7813 628.92 75.3584 628.295 75.3919C626.85 75.4693 625.72 76.4044 624.126 76.4044C621.204 76.4044 616.375 77.2272 613.982 75.5325C613.432 75.1429 611.989 74.7747 611.281 74.5763C610.3 74.3015 609.546 74.3303 608.702 73.7326C607.394 72.8061 605.53 72.4767 603.978 71.8482C602.577 71.2813 600.829 71.619 599.531 70.9623C598.638 70.5103 597.707 70.3087 596.829 69.8233C596.113 69.4271 594.759 69.4839 594.39 68.8108" stroke="#FAEBD7" stroke-width="3" stroke-linecap="round" stroke-dasharray="6 12 18 24"/>
<path d="M611.62 75.3919C617.941 75.3919 624.321 78.1317 630.796 76.6575" stroke="#FAEBD7" stroke-width="3" stroke-linecap="round" stroke-dasharray="6 12 18 24"/>
<path d="M605.228 72.3545C604.676 72.3042 603.496 71.8591 603.067 71.5389C602.593 71.1854 601.911 71.4217 601.338 71.1451C600.055 70.5267 598.692 70.073 597.447 69.317" stroke="#FAEBD7" stroke-width="3" stroke-linecap="round" stroke-dasharray="6 12 18 24"/>
<path d="M632.463 71.342C631.483 71.342 629.78 71.1973 629.128 70.4561C628.563 69.8119 626.547 68.8108 625.655 68.8108C623.311 68.8108 621.592 67.2921 619.247 67.2921C616.873 67.2921 614.802 65.9006 612.732 64.9578C611.026 64.181 609.08 63.7306 607.452 62.9891" stroke="#FAEBD7" stroke-width="3" stroke-linecap="round" stroke-dasharray="6 12 18 24"/>
<path d="M590.221 52.3581C590.941 52.3581 591.478 52.9965 592.182 53.1034C592.68 53.1791 593.844 53.337 594.112 53.7643C594.39 54.2074 595.078 54.2273 595.502 54.6362C596.049 55.1638 596.834 55.3035 597.385 55.7049C597.811 56.0154 598.168 56.0619 598.697 56.169C599.449 56.321 599.747 57.0476 600.504 57.2939C601.658 57.6694 602.48 58.1719 603.7 58.4189C604.702 58.6217 605.607 59.3371 606.618 59.4454C607.128 59.5001 608.27 59.8901 608.625 60.1485C608.973 60.4021 610.07 60.1813 610.509 60.2048C611.761 60.2719 613.201 61.2172 614.538 61.2172C615.738 61.2172 617.092 61.6831 618.166 61.9625C619.174 62.2247 620.62 62.4828 621.625 62.4828C622.901 62.4828 624.155 62.9747 625.407 63.2281C627.874 63.7274 631.106 63.2422 633.637 63.2422C636.441 63.2422 639.246 63.2422 642.051 63.2422C644.196 63.2422 645.92 62.8375 647.964 62.286C649.578 61.8504 652.944 62.3068 654.14 61.2172" stroke="#FAEBD7" stroke-width="3" stroke-linecap="round" stroke-dasharray="6 12 18 24"/>
<path d="M619.68 82.7323C619.68 84.9771 615.406 85.7697 613.566 85.7697C612.095 85.7697 611.267 85.3113 609.953 84.8838C608.587 84.4395 607.172 84.5028 606.062 83.4916" stroke="#FAEBD7" stroke-width="3" stroke-linecap="round" stroke-dasharray="6 12 18 24"/>
<path d="M618.29 82.4791C618.29 85.1109 616.573 85.2634 614.06 85.2634C612.731 85.2634 612.061 84.7814 610.941 84.49C610.596 84.4002 610.216 83.8675 609.798 83.7588C609.188 83.5999 608.477 83.6105 607.884 83.365C606.978 82.9898 605.989 82.3311 604.95 82.226C604.303 82.1605 603.887 81.4972 603.283 81.4667C602.741 81.4392 602.018 81.4393 601.677 80.9604C601.295 80.4217 599.176 79.834 598.42 79.6808C597.281 79.4503 596.513 78.6312 595.378 78.4433C594.829 78.3523 594.333 78.1058 593.834 77.8668C593.154 77.5406 592.521 77.6162 591.889 77.3605C590.662 76.864 589.482 76.269 588.261 75.8981C587.39 75.6338 586.361 74.984 585.497 74.8856C584.6 74.7834 583.604 73.9681 582.718 73.8731C580.407 73.6255 578.631 71.7944 576.465 71.356C574.133 70.8841 571.575 69.7228 569.656 68.5576" stroke="#FAEBD7" stroke-width="3" stroke-linecap="round" stroke-dasharray="6 12 18 24"/>
<path d="M670.815 118.928C670.815 117.897 671.718 117.946 671.942 117.03C672.024 116.694 672.977 115.327 673.254 115.075C674.263 114.156 675.701 113.484 676.435 112.347C676.872 111.67 678.009 111.623 678.596 110.955C678.931 110.574 679.752 110.322 680.263 110.322C680.629 110.322 681.999 110.182 682.209 109.942C682.353 109.779 684.163 109.31 684.432 109.31" stroke="#FAEBD7" stroke-width="3" stroke-linecap="round" stroke-dasharray="6 12 18 24"/>
<path d="M663.033 111.841C661.755 111.55 664.145 107.322 664.145 106.652C664.145 105.522 665.953 104.971 666.368 104.121C666.688 103.465 668.149 103.575 668.591 102.869C668.847 102.461 670.289 102.04 670.753 101.66C671.521 101.03 672.319 100.934 673.099 100.451C674.766 99.4186 676.863 99.2249 678.596 98.1725" stroke="#FAEBD7" stroke-width="3" stroke-linecap="round" stroke-dasharray="6 12 18 24"/>
<path d="M661.088 111.588C661.088 110.234 662.882 109.099 663.033 107.791C663.111 107.115 663.979 105.175 664.562 104.88C665.138 104.589 665.401 104.189 665.874 103.797C666.143 103.574 666.198 103.249 666.43 103.038C666.7 102.792 667.23 102.886 667.48 102.602C668.214 101.766 669.47 101.246 670.537 100.76C671.652 100.252 672.661 99.8767 673.748 99.3818C674.775 98.9142 675.922 98.1724 677.068 98.1724C677.706 98.1724 678.091 97.6933 678.596 97.6662C679.17 97.6355 679.885 97.8016 680.402 97.5397C681.017 97.2288 682.924 96.9069 683.598 96.9069" stroke="#FAEBD7" stroke-width="3" stroke-linecap="round" stroke-dasharray="6 12 18 24"/>
<path d="M644.135 102.222C645.589 102.075 647.68 101.129 649.014 100.577C649.544 100.358 650.805 99.9137 650.805 99.3115C650.805 98.8583 652.049 97.859 652.473 97.6662" stroke="#FAEBD7" stroke-width="3" stroke-linecap="round" stroke-dasharray="6 12 18 24"/>
<path d="M644.413 101.463C645.661 101.463 647.213 100.732 648.165 100.057C649.241 99.2944 650.255 98.2263 651.361 97.7224C652.562 97.1757 653.804 95.9638 655.097 95.6272C656.226 95.3336 657.002 93.6163 658.309 93.6163" stroke="#FAEBD7" stroke-width="3" stroke-linecap="round" stroke-dasharray="6 12 18 24"/>
<path d="M687.767 127.028C686.953 126.842 688.513 125.299 688.616 124.876C688.797 124.137 689.625 124.143 690.268 123.85C690.921 123.553 691.558 123.22 692.213 122.922C692.838 122.637 692.893 121.966 693.603 121.966" stroke="#FAEBD7" stroke-width="3" stroke-linecap="round" stroke-dasharray="6 12 18 24"/>
<path d="M693.047 120.953C691.178 120.953 690.485 121.263 689.033 122.345C687.44 123.532 685.324 124.923 684.154 126.522" stroke="#FAEBD7" stroke-width="3" stroke-linecap="round" stroke-dasharray="6 12 18 24"/>
<path d="M699.717 118.928C698.013 118.928 696.434 118.795 694.854 119.434C693.698 119.902 692.072 120.89 690.824 120.953C689.931 120.998 689.802 121.966 689.017 121.966C688.338 121.966 687.939 122.807 687.335 122.964C686.689 123.132 686.363 123.299 685.822 123.737C685.253 124.198 685.091 124.856 684.432 125.256" stroke="#FAEBD7" stroke-width="3" stroke-linecap="round" stroke-dasharray="6 12 18 24"/>
<path d="M709.722 85.2634C709.69 85.4905 700.777 84.7193 700.057 84.1947C699.192 83.565 696.579 83.9956 695.409 83.7588C693.827 83.4385 691.774 83.7447 690.145 83.7447C688.333 83.7447 686.522 83.7447 684.71 83.7447C683.669 83.7447 682.428 83.7738 681.437 84.0541C680.325 84.3683 679.095 84.2875 678.04 84.6306C674.486 85.7868 669.841 85.1375 666.924 87.7946" stroke="#FAEBD7" stroke-width="3" stroke-linecap="round" stroke-dasharray="6 12 18 24"/>
<path d="M723.061 89.8195C721.207 89.8195 720.496 88.6675 718.754 88.3149C717.204 88.0013 715.201 87.5415 713.612 87.5415C710.51 87.5415 707.555 86.2759 704.441 86.2759C698.042 86.2759 691.934 85.7697 685.544 85.7697C682.152 85.7697 678.948 87.2884 675.539 87.2884C674.733 87.2884 674.14 87.3213 673.455 87.668C672.557 88.1223 671.899 87.9026 670.938 88.0618C670.181 88.1871 669.553 88.6926 668.869 89.0039C668.355 89.2381 667.904 89.5407 667.418 89.8195C667.054 90.0281 666.434 89.9235 666.152 90.1289C665.278 90.7653 663.753 92.0976 662.632 92.0976C661.858 92.0976 659.497 92.9515 658.926 93.4194C657.934 94.2327 656.872 95.0229 655.684 95.6412C654.581 96.2155 652.482 97.3968 651.917 98.4255" stroke="#FAEBD7" stroke-width="3" stroke-linecap="round" stroke-dasharray="6 12 18 24"/>
<path d="M714.446 87.5415C711.667 87.5415 708.888 87.5415 706.109 87.5415C704.767 87.5415 703.629 86.8006 702.357 86.5431C701.347 86.3387 700.059 86.5291 699.022 86.5291C693.531 86.5291 688.04 86.5291 682.548 86.5291C680.504 86.5291 678.316 86.7865 676.388 87.4009C674.787 87.9113 673.086 87.7838 671.525 88.3009C670.669 88.5843 669.881 88.8511 669.024 89.0743C668.462 89.2205 667.941 89.9372 667.341 90.0587C666.201 90.2893 665.215 91.0852 664.006 91.0852C663.141 91.0852 661.51 92.0579 661.026 92.5476C660.462 93.1189 658.852 94.0786 658.031 94.1226C657.307 94.1614 655.867 95.5085 655.252 95.8382C654.555 96.2115 653.912 96.3845 653.306 96.9069C652.754 97.3832 652.145 98.1725 651.361 98.1725" stroke="#FAEBD7" stroke-width="3" stroke-linecap="round" stroke-dasharray="6 12 18 24"/>
<path d="M687.489 86.276C686.686 86.276 683.651 86.625 683.32 86.0229" stroke="#FAEBD7" stroke-width="3" stroke-linecap="round" stroke-dasharray="6 12 18 24"/>
<path d="M697.494 86.7822C696.456 86.664 695.523 86.0228 694.298 86.0228C693.454 86.0228 691.238 85.9369 690.546 85.5166" stroke="#FAEBD7" stroke-width="3" stroke-linecap="round" stroke-dasharray="6 12 18 24"/>
<path d="M611.064 88.3008C612.764 88.3868 614.805 89.3308 616.005 90.382C617.036 91.2845 617.547 92.5092 618.846 93.1663C621.145 94.3296 623.689 94.2166 625.639 95.8943C626.126 96.3134 626.719 96.137 627.245 96.5975C627.75 97.0402 628.503 97.3401 629.128 97.6099C630.132 98.0427 631.353 98.1965 632.247 98.8755C633.016 99.4591 634.034 99.7359 634.81 100.422C635.859 101.35 637.189 102.145 638.454 102.785C639.328 103.227 640.067 103.905 640.584 104.753C641.435 106.148 643.659 106.859 645.031 107.65C646.377 108.427 647.671 109.343 648.86 110.322C650.056 111.308 651.288 112.632 652.658 113.416C653.539 113.92 654.471 114.367 655.344 114.878C656.168 115.361 657.198 115.366 657.938 115.947C658.636 116.495 659.483 116.502 660.192 117.1C660.604 117.447 661.163 117.924 661.644 118.169C663.247 118.985 665.31 120.054 666.646 121.206C667.649 122.072 669.481 122.168 670.537 122.992C671.54 123.775 673.114 124.191 674.273 124.862C675.236 125.42 676.151 125.732 677.067 126.381C678.775 127.591 681.876 127.788 683.32 129.432C683.87 130.059 685.576 130.482 686.377 130.951C686.87 131.24 687.376 131.403 687.921 131.584C688.627 131.818 688.881 132.372 689.558 132.596C690.691 132.972 691.646 133.848 692.646 134.368C693.84 134.99 695.142 135.224 696.351 135.774C698.636 136.815 701.124 137.568 703.484 138.545C705.551 139.4 708.015 140.183 710.262 140.823C714.249 141.958 718.555 143.734 722.783 143.734" stroke="#FAEBD7" stroke-width="3" stroke-linecap="round" stroke-dasharray="6 12 18 24"/>
<path d="M596.613 82.4792C598.512 82.4792 600.411 82.4792 602.31 82.4792C603.774 82.4792 605.16 84.2232 606.479 84.7573C607.156 85.0314 607.4 85.3173 607.791 85.7135C608.013 85.9378 608.399 85.962 608.687 86.0369C609.042 86.1293 608.641 86.6758 608.996 86.7682C610.179 87.0761 610.939 88.5145 612.315 88.7931C613.114 88.9547 613.124 89.5136 613.782 89.7634C614.446 90.0153 614.451 90.9274 614.971 91.0852C615.751 91.3222 616.295 91.7969 616.962 92.2102C617.858 92.7652 617.717 92.8706 618.691 93.1242C619.283 93.2782 619.952 93.8108 620.513 94.0664C621.102 94.3345 621.666 94.2968 622.304 94.6289C623.413 95.2061 624.47 96.0454 625.639 96.6538C627.71 97.7315 629.531 99.4529 631.63 100.647C632.624 101.213 633.584 102 634.687 102.532C635.361 102.857 635.718 103.346 636.478 103.741C637.067 104.048 638.031 104.588 638.577 105.007C639.929 106.044 641.625 106.381 643.178 107.088C643.944 107.437 644.321 108.104 645.093 108.424C645.487 108.587 645.459 108.939 645.803 109.113C646.24 109.334 646.738 109.322 647.192 109.507C648.48 110.028 649.559 110.823 650.805 111.391C652.611 112.213 654.082 113.586 655.808 114.372" stroke="#FAEBD7" stroke-width="3" stroke-linecap="round" stroke-dasharray="6 12 18 24"/>
<path d="M603.561 84.251C604.147 84.3104 605.082 85.1304 605.506 85.5166C606.235 86.1803 607.212 86.02 608.007 86.4728C609.237 87.1726 610.496 88.0893 611.559 88.8634C612.711 89.7033 614.049 90.1471 615.017 91.0289C615.436 91.411 616.209 91.9386 616.746 92.3508C617.751 93.1217 619.304 92.9323 619.958 94.1226" stroke="#FAEBD7" stroke-width="3" stroke-linecap="round" stroke-dasharray="6 12 18 24"/>
<path d="M618.012 91.5914C619.103 92.5263 620.916 93.7393 622.335 94.1085C623.529 94.4192 624.119 95.3322 625.361 95.6553C625.514 95.695 626.52 96.3222 626.566 96.4006C627.028 97.196 627.559 96.8899 628.156 97.5537C628.667 98.1234 629.3 98.9797 629.962 99.3818C630.475 99.693 630.845 100.685 630.086 99.9302C629.555 99.403 628.666 99.3341 628.279 98.8053C628.04 98.4782 627.437 97.7277 627.121 97.4694C626.781 97.1902 626.097 97.129 625.67 96.9069C625.088 96.6039 624.6 95.9324 623.848 95.8944C622.806 95.8417 621.612 94.6888 620.853 94.0663C619.906 93.2903 618.913 92.4888 617.734 91.8445" stroke="#FAEBD7" stroke-width="3" stroke-linecap="round" stroke-dasharray="6 12 18 24"/>
<path d="M620.513 93.1101C621.221 93.1907 622.677 94.2159 623.138 94.7554C623.696 95.409 624.873 96.2387 625.67 96.6538C626.189 96.9239 627.505 98.1142 628.017 98.1725C628.602 98.2391 628.695 98.9199 629.128 99.1287C629.657 99.3836 630.235 99.3509 630.796 99.6912" stroke="#FAEBD7" stroke-width="3" stroke-linecap="round" stroke-dasharray="6 12 18 24"/>
<path d="M631.63 100.451C632.734 100.674 634.51 102.275 635.242 103.108C635.78 103.72 637.568 104.981 637.728 105.639C637.873 106.232 638.795 106.084 638.855 106.525C638.94 107.142 640.607 107.07 641.017 107.341C642.067 108.037 642.977 108.567 643.919 109.253C644.812 109.904 646.087 110.466 647.053 110.955C648.287 111.579 649.602 112.24 650.666 112.994C652.831 114.528 655.238 115.218 657.197 116.903C659.217 118.641 662.137 119.699 664.546 120.953C665.665 121.535 666.952 121.473 668.035 122.022C669.385 122.704 671.086 123.308 672.266 124.187C672.821 124.601 673.887 124.53 674.551 124.75C675.27 124.988 675.71 125.306 676.357 125.65C677.067 126.027 677.721 126.529 678.457 126.901C678.761 127.055 678.873 127.343 679.152 127.478C679.363 127.58 679.89 127.419 679.97 127.675C680.13 128.185 682.103 129.202 682.765 129.503C684.106 130.114 686.272 131.078 687.767 131.078" stroke="#FAEBD7" stroke-width="3" stroke-linecap="round" stroke-dasharray="6 12 18 24"/>
<path d="M173.905 116.87C171.289 116.87 169.483 120.256 166.47 120.256C164.631 120.256 162.847 120.933 160.894 120.933" stroke="#FAEBD7" stroke-width="3" stroke-linecap="round" stroke-dasharray="6 12 18 24"/>
<path d="M172.79 116.193C172.704 116.544 170.756 118.713 170.394 118.901C169.937 119.139 170.032 119.854 169.444 119.917C168.834 119.982 168.321 120.405 167.75 120.594C164.924 121.53 163.046 121.405 160.522 120.256" stroke="#FAEBD7" stroke-width="3" stroke-linecap="round" stroke-dasharray="6 12 18 24"/>
<path d="M172.79 117.547C170.885 117.547 169.06 119.24 167.214 119.24C165.593 119.24 162.966 119.708 161.637 118.901" stroke="#FAEBD7" stroke-width="3" stroke-linecap="round" stroke-dasharray="6 12 18 24"/>
<path d="M180.596 114.838C182.199 114.838 183.867 111.947 184.293 110.587C184.918 108.594 181.227 106.712 179.481 106.712" stroke="#FAEBD7" stroke-width="3" stroke-linecap="round" stroke-dasharray="6 12 18 24"/>
<path d="M179.853 115.854C179.91 114.963 181.685 113.933 182.269 112.976C182.773 112.15 183.27 110.379 182.744 109.421C182.437 108.862 181.859 108.444 181.526 107.897C181.295 107.519 180.296 106.685 180.245 106.524C179.993 105.719 178.678 104.004 177.622 104.004" stroke="#FAEBD7" stroke-width="3" stroke-linecap="round" stroke-dasharray="6 12 18 24"/>
<path d="M195.094 102.649C195.094 101.663 195.375 100.39 194.557 99.6019C193.664 98.7404 193.854 97.7572 193.07 97.0437C192.423 96.4544 192.345 95.5666 191.563 95.0122C191.006 94.6181 189.769 93.9637 189.518 93.5074" stroke="#FAEBD7" stroke-width="3" stroke-linecap="round" stroke-dasharray="6 12 18 24"/>
<path d="M195.838 102.311C195.368 100.974 195.5 99.7198 194.165 98.7742C193.453 98.27 192.752 97.8921 192.038 97.307C190.325 95.9033 188.204 94.8952 186.173 93.5074" stroke="#FAEBD7" stroke-width="3" stroke-linecap="round" stroke-dasharray="6 12 18 24"/>
<path d="M196.581 85.3813C195.3 84.8321 194.146 84.8945 193.236 83.8577C193.058 83.6551 190.613 82.4093 190.241 82.3528C187.512 81.9386 184.991 81.0317 182.538 80.2273C180.364 79.5146 178.826 77.3295 176.693 76.8979C175.846 76.7265 175.682 75.9725 175.02 75.6376C174.321 75.2839 173.767 75.6943 173.244 74.8851C172.872 74.3098 170.168 72.8536 169.444 72.8536" stroke="#FAEBD7" stroke-width="3" stroke-linecap="round" stroke-dasharray="6 12 18 24"/>
<path d="M199.184 86.7356C197.51 86.7356 196.652 86.0844 195.301 85.3813C194.435 84.9306 193.103 83.6884 192.12 83.6884C190.613 83.6884 189.333 82.6726 187.845 82.6726C186.582 82.6726 185.164 82.0728 184.231 81.3935C183.837 81.1064 183.148 80.9797 182.641 80.9797C181.743 80.9797 181.544 80.5186 180.782 80.1332C179.713 79.5922 177.663 78.271 176.507 78.271C175.835 78.271 173.617 77.4106 172.976 77.0859C171.752 76.4666 170.271 75.8237 168.886 75.5435C167.575 75.2782 166.725 73.2992 165.727 73.1922C164.867 73.1002 162.898 71.5807 162.381 70.9914C161.671 70.1828 160.21 69.592 159.324 68.8658C158.421 68.1253 157.276 67.3054 156.226 66.7591C154.77 66.0012 153.681 65.109 152.344 64.4642C151.365 63.9924 149.69 63.3145 148.998 62.5268C148.345 61.7839 146.637 61.1167 145.652 60.5893C144.684 60.0704 142.346 59.0432 141.935 58.2945" stroke="#FAEBD7" stroke-width="3" stroke-linecap="round" stroke-dasharray="6 12 18 24"/>
<path d="M196.953 85.3813C194.321 85.3813 192.403 83.619 189.89 83.3498C188.953 83.2494 188.061 82.4774 187.081 82.3152C185.559 82.0632 184.463 81.3967 182.827 81.3183C181.219 81.2412 180.45 80.4238 179.109 79.8134C177.906 79.2653 176.613 79.4674 175.475 78.5343C174.113 77.4186 171.118 76.9182 170.187 75.2237" stroke="#FAEBD7" stroke-width="3" stroke-linecap="round" stroke-dasharray="6 12 18 24"/>
<path d="M197.325 86.7356C196.039 86.7356 194.791 86.8008 193.607 86.3218C192.623 85.9231 191.643 85.0427 190.551 85.0427C188.242 85.0427 185.126 83.85 183.364 82.334C181.855 81.036 179.472 80.2537 177.622 79.362C176.85 78.9897 175.526 78.1713 174.855 77.5938C173.782 76.6711 172.232 76.0701 171.303 75.2237" stroke="#FAEBD7" stroke-width="3" stroke-linecap="round" stroke-dasharray="6 12 18 24"/>
<path d="M202.529 87.4128C199.581 87.4128 197.958 86.4774 195.549 85.0427C192.953 83.4967 189.736 82.2861 186.544 81.9954C185.486 81.8991 184.621 81.1048 183.57 80.9985C182.164 80.8561 182.097 80.1575 180.968 79.7006C179.169 78.9724 177.161 78.7379 175.392 77.9324" stroke="#FAEBD7" stroke-width="3" stroke-linecap="round" stroke-dasharray="6 12 18 24"/>
<path d="M189.89 85.7199C188.805 85.1638 186.868 84.4049 186.255 83.3498C185.578 82.1844 184.372 82.3766 183.281 81.5816C182.104 80.7237 180.412 80.9865 179.192 80.3025C178.24 79.7692 177.127 79.5254 176.135 79.0234C175.451 78.6771 176.18 78.5372 176.59 78.8729C180.632 82.1861 185.595 84.7041 191.377 84.7041" stroke="#FAEBD7" stroke-width="3" stroke-linecap="round" stroke-dasharray="6 12 18 24"/>
<path d="M206.247 89.1058H206.99" stroke="#FAEBD7" stroke-width="3" stroke-linecap="round" stroke-dasharray="6 12 18 24"/>
<path d="M206.99 89.1058C207.78 89.302 208.099 89.8866 208.477 90.4601" stroke="#FAEBD7" stroke-width="3" stroke-linecap="round" stroke-dasharray="6 12 18 24"/>
<path d="M208.477 90.7987C208.404 90.2622 207.465 89.4674 207.073 89.0305C206.194 88.0516 206.709 87.8312 205.132 87.7514C204.377 87.7132 203.961 86.7725 203.273 86.7356C202.35 86.6862 201.409 86.7356 200.485 86.7356C199.627 86.7356 196.014 85.706 198.068 86.1337C199.848 86.5041 201.716 86.0631 203.459 86.4159C204.03 86.5315 207.692 88.0376 207.692 88.579C207.692 89.3179 203.964 88.1071 203.645 88.09C202.432 88.025 200.139 87.9821 199.349 87.2623C198.589 86.5705 196.471 85.7199 195.466 85.7199" stroke="#FAEBD7" stroke-width="3" stroke-linecap="round" stroke-dasharray="6 12 18 24"/>
<path d="M201.042 87.7514C198.772 87.7514 197.211 87.3783 195.094 86.7356" stroke="#FAEBD7" stroke-width="3" stroke-linecap="round" stroke-dasharray="6 12 18 24"/>
<path d="M178.738 79.9639C178.667 79.45 173.929 78.2275 173.161 77.8572C171.371 76.9939 169.175 76.21 167.957 74.5465" stroke="#FAEBD7" stroke-width="3" stroke-linecap="round" stroke-dasharray="6 12 18 24"/>
<path d="M161.637 68.7907C161.349 68.4905 161.461 68.6125 161.637 68.4521" stroke="#FAEBD7" stroke-width="3" stroke-linecap="round" stroke-dasharray="6 12 18 24"/>
<path d="M167.957 75.2237C166.848 75.0975 164.3 72.7578 163.579 72.1012C162.474 71.0949 160.398 69.5959 159.035 68.8658C158.396 68.5233 157.51 67.5118 156.805 67.4362C155.662 67.3138 154.861 66.1341 153.831 66.0819C152.776 66.0286 152.116 65.156 151.228 65.0661C150.439 64.9862 149.012 64.4669 148.44 64.0504C147.765 63.5583 146.433 63.536 146.024 62.8842C145.613 62.2285 143.616 61.3837 142.885 61.0031C141.385 60.2223 139.372 59.9765 137.66 59.63C135.379 59.1684 133.381 58.633 130.968 58.633C128.552 58.633 126.136 58.633 123.719 58.633" stroke="#FAEBD7" stroke-width="3" stroke-linecap="round" stroke-dasharray="6 12 18 24"/>
<path d="M180.225 64.7276C182.025 64.7276 184.151 65.8035 185.057 67.2481C185.862 68.5305 188.071 69.226 189.229 70.0697C189.932 70.5816 192.25 71.9957 193.05 72.1576C193.732 72.2958 193.303 72.4263 193.69 72.7784C194.003 73.0631 194.682 72.6589 195.012 72.9289C195.848 73.6146 196.28 73.8603 197.325 74.2832C198.931 74.9336 201.205 75.673 202.364 76.7285C202.865 77.1846 204.113 77.934 204.76 78.1957C205.29 78.4106 206.789 78.8901 207.362 78.9481C208.02 79.0148 209.578 79.5053 210.15 79.7946C211.041 80.2453 212.24 80.1701 213.145 80.6411C214.69 81.4453 217.501 80.9797 219.258 80.9797" stroke="#FAEBD7" stroke-width="3" stroke-linecap="round" stroke-dasharray="6 12 18 24"/>
<path d="M80.5969 58.6331C79.7114 59.3499 76.9429 60.6049 75.7642 60.6646C74.2485 60.7413 72.482 61.8195 71.0141 62.2823C69.181 62.8602 67.4457 63.6063 65.727 64.389C63.942 65.2019 61.6678 65.5085 59.7791 66.0819" stroke="#FAEBD7" stroke-width="3" stroke-linecap="round" stroke-dasharray="6 12 18 24"/>
<path d="M88.4035 70.145C86.7786 70.145 86.3041 70.7639 84.8513 71.1419C83.2954 71.5468 81.9849 70.7996 80.5968 70.4836" stroke="#FAEBD7" stroke-width="3" stroke-linecap="round" stroke-dasharray="6 12 18 24"/>
<path d="M90.2622 75.5623C88.4677 74.1095 90.3948 70.8545 92.121 69.8064" stroke="#FAEBD7" stroke-width="3" stroke-linecap="round" stroke-dasharray="6 12 18 24"/>
<path d="M92.4927 75.9009C92.3009 74.3287 90.5114 71.5551 92.8644 70.4835" stroke="#FAEBD7" stroke-width="3" stroke-linecap="round" stroke-dasharray="6 12 18 24"/>
<path d="M92.4927 76.9167C92.4927 75.7861 91.962 72.9309 92.7818 72.1013C93.3443 71.5321 93.36 70.6812 93.8971 70.0698C94.1675 69.7619 93.8354 69.2983 94.1862 68.9788C94.4777 68.7133 95.0974 68.6763 95.4667 68.4521" stroke="#FAEBD7" stroke-width="3" stroke-linecap="round" stroke-dasharray="6 12 18 24"/>
<path d="M103.273 81.6569C103.273 80.0544 103.688 79.359 104.471 77.9324C104.896 77.1585 106.857 75.9009 107.941 75.9009C109.386 75.9009 105.118 77.0933 104.471 78.271C104.268 78.6413 104.156 79.4367 104.037 79.8134C103.807 80.5483 103.273 81.2266 103.273 81.9954" stroke="#FAEBD7" stroke-width="3" stroke-linecap="round" stroke-dasharray="6 12 18 24"/>
<path d="M140.076 106.712C137.866 106.041 139.985 103.55 141.15 103.176C142.473 102.751 143.843 102.009 145.281 101.972C145.682 101.962 147.945 101.746 146.768 102.047C143.065 102.996 140.82 104.528 140.82 108.067" stroke="#FAEBD7" stroke-width="3" stroke-linecap="round" stroke-dasharray="6 12 18 24"/>
<path d="M648.591 65.8161C647.567 65.8161 642.684 65.658 641.921 67.1002C641.595 67.7151 642.105 68.0161 641.207 68.0633C640.3 68.111 639.483 68.6375 638.8 69.1691C638.359 69.5118 637.702 69.6692 637.195 70.0073C636.354 70.5676 636.743 71.2839 636.231 71.8979C635.414 72.8791 635.389 73.4331 634.145 74.0916C633.036 74.6788 633.093 75.7681 631.576 75.7681C629.642 75.7681 628.864 75.8536 627.26 76.8739C626.022 77.6618 624.174 77.3733 622.766 77.3733C621.966 77.3733 619.427 77.273 619.056 78.0153" stroke="#FAEBD7" stroke-width="3" stroke-linecap="round"/>
<path d="M635.429 67.4212C632.587 67.4212 629.718 67.1002 626.921 67.1002C624.898 67.1002 623.379 65.495 621.303 65.495" stroke="#FAEBD7" stroke-width="3" stroke-linecap="round"/>
<path d="M603.326 61.0005C603.894 61.5061 604.195 61.5993 604.931 61.6426C605.695 61.6876 605.392 62.7616 606.054 62.9089C606.812 63.0774 607.686 62.8859 608.462 62.9268C609.271 62.9693 609.633 63.9263 610.228 64.3892C612.168 65.8981 615.161 65.8837 617.451 67.0289C619.007 67.8071 620.632 68.3678 622.106 69.1869C622.58 69.4502 623.655 69.6368 624.193 69.6685C624.901 69.7102 624.628 70.6316 625.316 70.6316C626.428 70.6316 627.381 71.861 628.366 71.9157C629.961 72.0043 631.585 71.9157 633.182 71.9157" stroke="#FAEBD7" stroke-width="3" stroke-linecap="round"/>
<path d="M657.259 61.6426C655.793 61.6426 654.917 61.3184 653.567 61.0184C652.051 60.6813 650.315 61.0983 648.877 61.3037C646.171 61.6902 643.823 62.8234 641.136 62.9267C635.522 63.1427 629.756 63.5688 624.193 63.5688" stroke="#FAEBD7" stroke-width="3" stroke-linecap="round"/>
<path d="M656.938 58.1112C659.132 58.1112 661.326 58.1112 663.519 58.1112C664.304 58.1112 665.236 58.0081 665.856 58.5036C667.094 59.4945 667.236 58.5312 668.495 58.1112" stroke="#FAEBD7" stroke-width="3" stroke-linecap="round"/>
<path d="M644.097 105.303C645.296 105.303 646.734 106.56 647.557 107.301C648.762 108.385 648.877 109.414 649.626 110.761C650.977 113.192 652.75 114.129 655.012 115.327C656.112 115.909 657.222 116.003 658.151 116.932C658.735 117.516 659.744 118.431 660.47 118.858C661.789 119.634 667.211 122.111 667.211 118.787" stroke="#FAEBD7" stroke-width="3" stroke-linecap="round"/>
<path d="M694.82 133.554C696.701 133.554 697.635 135.803 699.154 136.14C700.872 136.522 701.967 138.691 703.97 138.691C704.612 138.691 704.219 139.198 704.629 139.315C704.98 139.415 705.477 139.171 705.735 139.493C705.93 139.737 707.61 140.274 707.983 140.296C708.725 140.34 709.423 141.259 710.069 141.259C710.998 141.259 711.604 141.58 712.477 141.58" stroke="#FAEBD7" stroke-width="3" stroke-linecap="round"/>
<path d="M690.647 123.602C688.831 123.602 687.213 124.565 685.51 124.565C683.893 124.565 682.144 124.244 680.695 124.244" stroke="#FAEBD7" stroke-width="3" stroke-linecap="round"/>
<path d="M693.536 131.307C693.462 130.713 691.61 130.68 691.61 129.381C691.61 128.189 691.289 127.07 691.289 125.849" stroke="#FAEBD7" stroke-width="3" stroke-linecap="round"/>
<path d="M687.115 123.281C686.235 123.379 685.864 124.565 684.708 124.565C683.677 124.565 682.891 125.207 681.979 125.207" stroke="#FAEBD7" stroke-width="3" stroke-linecap="round"/>
<path d="M678.768 122.639C676.219 122.639 677.83 120.604 676.361 119.429C674.962 118.31 677.484 116.444 677.484 115.576" stroke="#FAEBD7" stroke-width="3" stroke-linecap="round"/>
<path d="M674.916 116.218C674.263 116.218 673.467 116.094 672.829 116.236C671.941 116.434 671.186 117.142 670.172 117.181C668.711 117.238 667.295 116.86 665.927 116.86" stroke="#FAEBD7" stroke-width="3" stroke-linecap="round"/>
<path d="M664.964 107.871C664.964 110.74 663.104 110.621 660.951 111.1C659.526 111.416 655.048 112.186 655.048 109.655C655.048 109.467 657.396 110.06 657.741 110.137C658.882 110.39 659.901 110.44 661.112 110.44C661.833 110.44 661.827 110.05 662.146 109.477C662.392 109.034 662.717 107.561 662.717 108.068C662.717 108.766 661.162 110.078 660.47 110.119C659.326 110.186 658.155 110.119 657.009 110.119C656.049 110.119 656.749 110.119 657.259 110.119C657.969 110.119 658.371 109.64 659.025 109.494C660.326 109.205 661.131 109.178 662.146 108.264C662.444 107.995 664.398 107.047 664.821 106.926C666.544 106.434 663.321 106.394 663.038 106.748C662.445 107.489 661.718 107.871 660.791 107.871C658.576 107.871 656.317 108.514 654.049 108.514" stroke="#FAEBD7" stroke-width="3" stroke-linecap="round"/>
<path d="M649.554 105.945C653.116 107.085 656.721 107.229 660.47 107.229C661.917 107.229 663.107 106.093 664.322 105.553C665.67 104.954 667.214 104.981 668.495 104.34" stroke="#FAEBD7" stroke-width="3" stroke-linecap="round"/>
<path d="M652.444 108.835C650.691 107.849 650.518 105.858 650.518 104.019C650.518 103.488 650.266 102.129 650.839 101.843C651.496 101.514 650.869 103.772 650.678 104.001C650.039 104.768 650.798 105.624 651.641 105.624C653.135 105.624 652.916 106.703 652.622 106.409C651.782 105.569 651.124 102.753 652.444 102.093" stroke="#FAEBD7" stroke-width="3" stroke-linecap="round"/>
<path d="M643.455 102.414C642.108 101.815 639.679 101.543 638.996 100.006C638.496 98.8823 638.738 96.9564 640.084 96.9564C641.018 96.9564 639.823 98.8235 640.565 99.5246C641.465 100.374 642.242 100.31 642.813 101.451" stroke="#FAEBD7" stroke-width="3" stroke-linecap="round"/>
<path d="M641.207 95.0302C641.041 96.358 639.12 97.5984 637.837 97.5984C636.169 97.5984 634.571 98.2405 632.861 98.2405" stroke="#FAEBD7" stroke-width="3" stroke-linecap="round"/>
<path d="M640.244 95.0302C639.491 95.7833 639.163 96.1226 638.942 97.1169C638.858 97.4989 637.277 98.0612 636.874 98.2405C636.443 98.4318 634.571 98.8038 636 98.4902C637.137 98.2405 638.495 97.7093 639.032 96.6353C639.857 94.9839 636.985 96.397 636.214 96.6175C634.665 97.06 633.635 97.2774 631.898 97.2774" stroke="#FAEBD7" stroke-width="3" stroke-linecap="round"/>
<path d="M727.566 53.2957C728.36 52.6601 730.535 52.8223 731.561 52.6358C732.397 52.4838 733.47 51.7665 734.165 51.3695C734.986 50.9 735.277 49.9397 736.234 49.5146C737.081 49.1379 738.193 48.8012 739.123 48.8012" stroke="#FAEBD7" stroke-width="3" stroke-linecap="round"/>
<path d="M737.839 48.8012C735.354 49.9707 732.276 51.0485 729.492 51.0485C726.023 51.0485 721.907 50.418 718.577 51.3695" stroke="#FAEBD7" stroke-width="3" stroke-linecap="round"/>
<path d="M803.009 86.0412C802.063 85.9362 800.134 84.4546 799.549 83.7226C799.022 83.0649 799.547 81.0969 799.798 80.4053C800.135 79.4781 800.662 77.854 801.403 77.1949C802.483 76.2355 802.26 77.2899 801.243 77.8548C799.447 78.8523 799.415 80.666 800.69 82.2601C800.997 82.6434 800.524 83.2953 801.243 83.4551C801.775 83.5734 801.995 83.4907 802.367 83.9545C802.888 84.6061 803.909 85.0466 804.614 85.3991" stroke="#FAEBD7" stroke-width="3" stroke-linecap="round"/>
<path d="M800.119 77.0522C799.802 79.9083 795.914 80.2626 793.699 80.2626" stroke="#FAEBD7" stroke-width="3" stroke-linecap="round"/>
<path d="M782.462 73.8419C782.462 72.9675 781.718 73.403 781.517 72.7004C781.362 72.1577 781.39 70.957 781.66 70.471C782.292 69.3325 783.269 67.7235 784.549 67.439C785.486 67.2308 786.103 66.7791 787.117 66.7791C787.533 66.7791 786.272 67.6268 785.833 67.7244C784.466 68.0281 784.475 70.0915 783.907 71.1131C783.074 72.6122 784.493 73.907 785.102 75.126C786.006 76.9348 786.045 73.9054 785.423 73.1285C784.64 72.1496 785.627 69.8535 786.065 69.0264C786.358 68.4732 786.57 67.6907 786.636 67.1002C786.701 66.5171 787.881 65.3928 788.241 64.8529" stroke="#FAEBD7" stroke-width="3" stroke-linecap="round"/>
<path d="M780.536 67.7422C778.892 67.9249 778.003 69.3474 776.202 69.3474C774.478 69.3474 771.869 69.669 770.584 68.3843" stroke="#FAEBD7" stroke-width="3" stroke-linecap="round"/>
<path d="M770.263 59.0743C770.133 60.1115 769.305 61.3216 768.159 61.3216C766.904 61.3216 766.098 62.0509 764.966 62.3025C764.377 62.4335 764.204 62.9267 763.521 62.9267C762.986 62.9267 762.451 62.9267 761.916 62.9267C760.739 62.9267 759.562 62.9267 758.385 62.9267" stroke="#FAEBD7" stroke-width="3" stroke-linecap="round"/>
<path d="M670.743 55.864C669.619 55.864 668.495 55.864 667.372 55.864C666.377 55.864 665.534 55.2744 664.643 55.2219C662.899 55.1194 659.969 54.4436 658.615 53.2244C657.904 52.5847 656.421 52.3326 655.511 51.8511C654.561 51.3478 653.568 50.8568 652.515 50.4778C650.776 49.8517 648.581 48.3721 646.665 48.1592C644.613 47.9311 642.988 46.233 640.886 46.233C639.56 46.233 636.506 45.3613 635.5 44.5565C634.031 43.3808 631.433 44.385 630.043 43.2723C628.606 42.1232 625.984 42.3978 624.514 41.4175" stroke="#FAEBD7" stroke-width="3" stroke-linecap="round"/>
<path d="M631.898 43.3437C632.477 43.859 633.271 43.6742 633.895 44.2354C634.445 44.73 635.333 45.1831 636.071 45.2699C637.12 45.3933 638.876 46.128 639.602 47.0356C640.082 47.6358 642.712 48.7576 643.455 48.8013C644.292 48.8505 644.538 48.779 645.131 49.372C645.801 50.0418 646.413 49.9788 647.147 50.5491C647.805 51.061 649.544 52.0116 650.357 52.0116C651.586 52.0116 652.938 53.3728 654.049 53.8665C654.776 54.1896 655.07 53.9839 655.725 54.5085C656.024 54.747 657.503 55.2219 657.901 55.2219C659.136 55.2219 660.306 56.5061 661.754 56.5061" stroke="#FAEBD7" stroke-width="3" stroke-linecap="round"/>
<path d="M683.263 53.2957C682.73 53.3624 682.855 53.9378 681.979 53.9378" stroke="#FAEBD7" stroke-width="3" stroke-linecap="round"/>
<path d="M680.374 55.2219C674.645 55.2219 669.081 55.543 663.359 55.543" stroke="#FAEBD7" stroke-width="3" stroke-linecap="round"/>
<path d="M651.802 62.9267C651.802 61.2283 655.296 58.852 652.462 57.6119C650.574 56.7862 648.651 55.4453 646.808 54.9187C644.953 54.3887 643.451 53.0275 641.689 52.6358C640.07 52.2761 637.525 50.3069 636.231 49.3006C634.866 48.2387 632.815 48.3153 631.505 47.2674C631.176 47.0038 630.532 47.4377 630.292 47.0177C630.137 46.7467 629.664 46.2527 629.329 46.233C628.527 46.1858 627.171 45.8445 626.44 45.5196C625.65 45.1687 624.536 45.1498 623.943 44.5565C623.38 43.9931 622.243 44.0309 621.696 43.5934C620.939 42.9883 620.604 42.3638 619.627 41.9882C618.999 41.7466 618.63 41.0964 617.933 41.0964C617.18 41.0964 616.771 40.9073 616.167 40.4544" stroke="#FAEBD7" stroke-width="3" stroke-linecap="round"/>
<path d="M646.665 62.6057C646.665 61.8036 646.364 56.5061 647.307 56.5061C649.413 56.5061 647.324 65.6189 648.984 58.6106C649.024 58.4409 649.503 55.9 649.804 56.9698C650.029 57.771 650.243 58.5571 650.196 59.3954C650.16 60.046 649.554 60.3373 649.554 61.0719C649.554 61.305 649.507 63.0391 649.804 62.035C650.124 60.9543 649.676 59.82 650.125 58.7533C650.842 57.0513 648.675 58.659 648.27 59.003C646.66 60.3732 644.184 62.9268 647.949 62.9268C649.461 62.9268 650.838 62.6462 650.838 60.84C650.838 59.3763 651.95 58.6495 652.444 57.2908C652.814 56.2727 652.753 56.0529 651.641 56.3456C650.164 56.7343 649.58 57.9653 648.716 59.0922C648.503 59.3698 645.06 63.8088 644.757 62.7484C644.613 62.2464 645.274 61.25 645.524 60.8579C645.851 60.3432 645.564 59.7972 645.72 59.2527C645.904 58.6069 646.412 56.6925 645.524 56.185C644.667 55.6954 644.483 54.1492 643.615 53.4741C642.882 52.9038 642.426 51.8181 641.529 51.3695" stroke="#FAEBD7" stroke-width="3" stroke-linecap="round"/>
<path d="M643.455 64.5319C644.735 63.3942 644.418 61.6996 644.418 60.0374C644.418 59.0278 643.627 58.3122 643.205 57.4692C642.917 56.8932 643.493 55.6378 642.973 55.2219C642.836 55.1123 641.941 53.6959 641.867 53.4384C641.667 52.7357 641.027 52.3772 640.387 52.0116C639.525 51.5192 639.198 50.8233 638.479 50.2637C637.959 49.8593 636.999 49.6937 636.713 49.1223" stroke="#FAEBD7" stroke-width="3" stroke-linecap="round"/>
<path d="M641.85 63.2478C642.039 62.6807 642.829 62.628 643.062 62.035C643.254 61.5478 643.134 60.8728 643.134 60.3585C643.134 59.4936 642.685 59.0624 642.509 58.2718C642.209 56.9188 641.444 53.904 639.923 53.2957C637.198 52.2056 637.307 47.3447 634.145 46.554" stroke="#FAEBD7" stroke-width="3" stroke-linecap="round"/>
<path d="M643.134 63.8898C643.134 62.0944 643.134 60.299 643.134 58.5036C643.134 57.8875 642.956 57.5541 642.83 56.9876C642.695 56.376 642.007 56.3302 641.867 55.7035C641.65 54.7234 640.63 53.5025 639.923 52.7963C639.11 51.9826 638.999 50.4389 637.819 49.7644C636.692 49.1204 635.515 48.681 634.341 48.1592C634.157 48.0776 631.576 46.679 631.576 46.6967C631.576 47.9278 634.145 47.3498 634.145 48.6407C634.145 49.1027 635.261 51.3084 635.75 51.3695C637.369 51.572 638.639 54.5125 638.639 56.0245C638.639 57.0411 638.639 58.0577 638.639 59.0743C638.639 59.6688 638.639 60.2634 638.639 60.8579C638.639 61.24 639.281 62.4532 639.281 61.7318C639.281 60.4557 639.281 56.9158 639.281 60.3585C639.281 61.5715 638.784 65.1327 639.21 63.9969C639.815 62.3834 640.565 60.3061 640.565 58.575C640.565 56.8833 640.458 56.5061 639.602 55.2219" stroke="#FAEBD7" stroke-width="3" stroke-linecap="round"/>
<path d="M476.838 89.5725C476.999 88.7705 479.97 87.3253 480.851 87.3253C481.442 87.3253 483.105 85.8606 483.259 85.3991" stroke="#FAEBD7" stroke-width="3" stroke-linecap="round"/>
<path d="M355.487 72.8788C353.711 74.1703 350.594 73.7876 349.049 75.5897C347.757 77.097 345.437 76.6199 343.93 77.3733" stroke="#FAEBD7" stroke-width="3" stroke-linecap="round"/>
<path d="M350.993 84.115C350.758 83.0601 350.03 83.0165 350.03 81.7072C350.03 80.7364 351.104 79.2938 351.778 78.6574C352.449 78.0238 353.775 77.8552 354.203 76.8917C354.622 75.9492 356.339 75.7681 357.253 75.7681C358.226 75.7681 359.414 75.7706 360.303 75.3757C361.043 75.0468 361.923 74.484 362.711 74.484C364.699 74.484 366.271 73.5209 368.329 73.5209C370.255 73.5209 372.181 73.5209 374.107 73.5209C376.249 73.5209 377.964 74.0908 380.029 74.4661C380.988 74.6406 382.117 74.484 383.096 74.484C384.08 74.484 384.888 75.126 385.825 75.126C387.698 75.126 389.57 75.126 391.443 75.126" stroke="#FAEBD7" stroke-width="3" stroke-linecap="round"/>
<path d="M756.354 62.8286C755.896 62.7777 754.88 62.362 754.415 62.1551C753.821 61.8914 753.109 61.9519 752.475 61.6702C751.171 61.0908 749.499 61.6598 748.299 60.7004C747.883 60.367 746.857 60.6621 746.467 60.3501C745.968 59.9507 745.405 59.9258 744.77 59.7305C743.364 59.2979 741.977 59.3751 740.594 58.7607C739.959 58.4781 738.809 58.4643 738.116 58.4643C737.387 58.4643 736.886 58.0158 736.23 57.9794C735.601 57.9444 734.92 57.5294 734.29 57.4945C733.656 57.4592 733.095 57.0391 732.593 57.0095C731.217 56.9286 729.748 56.2822 728.471 56.2822C727.11 56.2822 725.948 55.5548 724.592 55.5548C723.245 55.5548 722.037 55.3123 720.713 55.3123C719.669 55.3123 717.783 55.6805 716.833 55.2584C714.342 54.1514 711.517 54.7429 708.832 54.5849C708.293 54.5532 707.727 53.8904 707.135 53.8575C706.453 53.8197 705.866 53.6151 705.195 53.6151C703.902 53.6151 702.609 53.6151 701.316 53.6151C698.487 53.6151 695.658 53.6151 692.829 53.6151" stroke="#FAEBD7" stroke-width="3" stroke-linecap="round"/>
<path d="M654.278 98.228C654.278 97.9855 654.153 97.2486 654.332 97.0696C654.596 96.8051 655.187 96.9298 655.436 96.5308C655.672 96.154 656.063 96.4402 656.272 96.0459C656.505 95.6052 656.916 95.1725 657.295 94.847C657.989 94.2526 658.812 94.1291 659.612 93.729C660.127 93.4715 660.418 93.5121 660.932 93.3653C661.269 93.2691 661.865 92.5731 662.279 92.3551C662.92 92.0181 663.997 91.4391 664.704 91.4391C665.712 91.4391 666.532 90.9542 667.492 90.9542C668.488 90.9542 669.441 90.4693 670.402 90.4693C671.221 90.4693 671.859 89.7889 672.705 89.7419C673.491 89.6982 674.283 89.4994 675.13 89.4994C675.843 89.4994 677.046 89.7277 677.676 89.3782C678.225 89.0729 679.606 89.6023 679.979 89.1357C680.447 88.5513 682.375 88.7996 683.077 88.5835C684.561 88.1267 686.793 88.5296 688.357 88.5296C690.491 88.5296 692.497 88.2871 694.648 88.2871C696.466 88.2871 698.285 88.2871 700.103 88.2871C700.774 88.2871 702.197 88.3579 702.717 88.8259C703.132 89.2 704.497 89.1631 705.087 89.2704C706.885 89.5973 708.417 89.638 710.287 89.7419C711.073 89.7855 711.865 89.9843 712.711 89.9843C713.556 89.9843 714.231 90.4693 715.015 90.4693C715.529 90.4693 716.392 91.261 716.968 91.4256C717.691 91.6324 718.746 91.4391 719.5 91.4391C720.404 91.4391 721.149 92.0752 721.925 92.1665C722.674 92.2546 723.566 92.4449 724.242 92.638C726.005 93.1416 727.816 93.3788 729.684 93.3788C731.523 93.3788 732.669 94.3487 734.533 94.3487" stroke="#FAEBD7" stroke-width="3" stroke-linecap="round"/>
<path d="M725.562 90.4693C724.857 89.8429 722.995 89.8984 722.06 89.7284C720.669 89.4756 719.255 89.4994 717.803 89.4994C715.852 89.4994 713.77 88.9777 712.092 87.9099C711.279 87.393 710.289 87.5937 709.371 87.5597C708.226 87.5173 706.973 86.9733 705.815 86.8189C703.806 86.5511 702.019 85.8625 699.915 85.8625C698.927 85.8625 698.019 85.8997 697.059 85.6739C696.226 85.4779 695.133 85.1351 694.284 85.1351C692.542 85.1351 690.888 84.4077 689.193 84.4077C687.899 84.4077 686.606 84.4077 685.313 84.4077" stroke="#FAEBD7" stroke-width="3" stroke-linecap="round"/>
</svg>

